<?xml version="1.0" encoding="utf-8"?>
<svg xmlns="http://www.w3.org/2000/svg" style="margin: auto; display: block; shape-rendering: auto; background: black;" width="285" height="81" preserveAspectRatio="xMidYMid">
<style type="text/css">
  text {
    text-anchor: middle; font-size: 32px; opacity: 0;
  }
</style>
<g style="transform-origin:142.5px 40.5px;transform:scale(1)">
<g transform="translate(142.5,40.5)">
  <g transform="translate(0,0)"><g class="path" style="opacity: 1; transform-origin: -131.02px -2.25458px; animation: 1s linear -0.621176s infinite normal forwards running fade-64b1c8be-6046-4bf7-9fba-1d6a73f28eb9;"><path d="M0.96-1.89L2.50-4.45L2.50-4.45Q3.65-3.49 5.09-2.88L5.09-2.88L5.09-2.88Q6.53-2.27 8.45-2.27L8.45-2.27L8.45-2.27Q10.75-2.27 12.10-3.23L12.10-3.23L12.10-3.23Q13.44-4.19 13.44-5.82L13.44-5.82L13.44-5.82Q13.44-6.50 13.25-7.07L13.25-7.07L13.25-7.07Q13.06-7.65 12.50-8.18L12.50-8.18L12.50-8.18Q11.94-8.70 10.93-9.23L10.93-9.23L10.93-9.23Q9.92-9.76 8.32-10.37L8.32-10.37L8.32-10.37Q6.59-11.04 5.39-11.70L5.39-11.70L5.39-11.70Q4.19-12.35 3.46-13.14L3.46-13.14L3.46-13.14Q2.72-13.92 2.40-14.86L2.40-14.86L2.40-14.86Q2.08-15.81 2.08-17.02L2.08-17.02L2.08-17.02Q2.08-18.21 2.58-19.26L2.58-19.26L2.58-19.26Q3.07-20.32 4.05-21.10L4.05-21.10L4.05-21.10Q5.02-21.89 6.45-22.34L6.45-22.34L6.45-22.34Q7.87-22.78 9.70-22.78L9.70-22.78L9.70-22.78Q11.68-22.78 13.25-22.38L13.25-22.38L13.25-22.38Q14.82-21.98 16.35-21.25L16.35-21.25L15.23-18.66L15.23-18.66Q14.14-19.30 12.69-19.73L12.69-19.73L12.69-19.73Q11.23-20.16 9.63-20.16L9.63-20.16L9.63-20.16Q7.52-20.16 6.30-19.34L6.30-19.34L6.30-19.34Q5.09-18.53 5.09-17.18L5.09-17.18L5.09-17.18Q5.09-16.54 5.26-16.05L5.26-16.05L5.26-16.05Q5.44-15.55 5.97-15.09L5.97-15.09L5.97-15.09Q6.50-14.62 7.44-14.14L7.44-14.14L7.44-14.14Q8.38-13.66 9.95-13.09L9.95-13.09L9.95-13.09Q11.81-12.38 13.09-11.65L13.09-11.65L13.09-11.65Q14.37-10.91 15.14-10.08L15.14-10.08L15.14-10.08Q15.90-9.25 16.24-8.29L16.24-8.29L16.24-8.29Q16.58-7.33 16.58-6.18L16.58-6.18L16.58-6.18Q16.58-4.61 15.97-3.39L15.97-3.39L15.97-3.39Q15.36-2.18 14.29-1.33L14.29-1.33L14.29-1.33Q13.22-0.48 11.71-0.05L11.71-0.05L11.71-0.05Q10.21 0.38 8.45 0.38L8.45 0.38L8.45 0.38Q6.11 0.38 4.19-0.24L4.19-0.24L4.19-0.24Q2.27-0.86 0.96-1.89L0.96-1.89" fill="#51cacc" stroke="none" stroke-width="none" transform="translate(-139.78999853134155,8.945424223507157)" style="fill: rgb(81, 202, 204);"></path></g><g class="path" style="opacity: 1; transform-origin: -113.74px 0.625424px; animation: 1s linear -0.582353s infinite normal forwards running fade-64b1c8be-6046-4bf7-9fba-1d6a73f28eb9;"><path d="M32.22-16.03L31.36-13.60L31.36-13.60Q30.43-14.05 29.63-14.26L29.63-14.26L29.63-14.26Q28.83-14.46 27.84-14.46L27.84-14.46L27.84-14.46Q26.72-14.46 25.74-14.05L25.74-14.05L25.74-14.05Q24.77-13.63 24.06-12.85L24.06-12.85L24.06-12.85Q23.36-12.06 22.96-10.94L22.96-10.94L22.96-10.94Q22.56-9.82 22.56-8.38L22.56-8.38L22.56-8.38Q22.56-7.07 22.93-5.95L22.93-5.95L22.93-5.95Q23.30-4.83 23.97-3.98L23.97-3.98L23.97-3.98Q24.64-3.14 25.57-2.66L25.57-2.66L25.57-2.66Q26.50-2.18 27.65-2.18L27.65-2.18L27.65-2.18Q28.86-2.18 29.73-2.43L29.73-2.43L29.73-2.43Q30.59-2.69 31.58-3.23L31.58-3.23L32.48-0.80L32.48-0.80Q31.46-0.26 30.24 0.06L30.24 0.06L30.24 0.06Q29.02 0.38 27.46 0.38L27.46 0.38L27.46 0.38Q25.66 0.38 24.22-0.26L24.22-0.26L24.22-0.26Q22.78-0.90 21.76-2.05L21.76-2.05L21.76-2.05Q20.74-3.20 20.18-4.80L20.18-4.80L20.18-4.80Q19.62-6.40 19.62-8.32L19.62-8.32L19.62-8.32Q19.62-10.11 20.18-11.70L20.18-11.70L20.18-11.70Q20.74-13.28 21.79-14.46L21.79-14.46L21.79-14.46Q22.85-15.65 24.34-16.34L24.34-16.34L24.34-16.34Q25.82-17.02 27.68-17.02L27.68-17.02L27.68-17.02Q29.12-17.02 30.18-16.77L30.18-16.77L30.18-16.77Q31.23-16.51 32.22-16.03L32.22-16.03" fill="#51cacc" stroke="none" stroke-width="none" transform="translate(-139.78999853134155,8.945424223507157)" style="fill: rgb(157, 248, 113);"></path></g><g class="path" style="opacity: 1; transform-origin: -96.96px -2.89458px; animation: 1s linear -0.543529s infinite normal forwards running fade-64b1c8be-6046-4bf7-9fba-1d6a73f28eb9;"><path d="M38.72-23.68L38.72-13.98L38.72-13.98Q39.62-15.30 40.98-16.16L40.98-16.16L40.98-16.16Q42.34-17.02 44.22-17.02L44.22-17.02L44.22-17.02Q47.04-17.02 48.43-15.33L48.43-15.33L48.43-15.33Q49.82-13.63 49.82-10.85L49.82-10.85L49.82 0L46.94 0L46.94-10.53L46.94-10.53Q46.94-12.35 46.13-13.42L46.13-13.42L46.13-13.42Q45.31-14.50 43.78-14.50L43.78-14.50L43.78-14.50Q43.04-14.50 42.32-14.22L42.32-14.22L42.32-14.22Q41.60-13.95 40.96-13.47L40.96-13.47L40.96-13.47Q40.32-12.99 39.74-12.35L39.74-12.35L39.74-12.35Q39.17-11.71 38.72-11.01L38.72-11.01L38.72 0L35.84 0L35.84-23.68L38.72-23.68" fill="#51cacc" stroke="none" stroke-width="none" transform="translate(-139.78999853134155,8.945424223507157)" style="fill: rgb(224, 255, 119);"></path></g><g class="path" style="opacity: 1; transform-origin: -78px 0.625424px; animation: 1s linear -0.504706s infinite normal forwards running fade-64b1c8be-6046-4bf7-9fba-1d6a73f28eb9;"><path d="M67.14-8.32L67.14-8.32L67.14-8.32Q67.14-9.57 66.74-10.69L66.74-10.69L66.74-10.69Q66.34-11.81 65.62-12.64L65.62-12.64L65.62-12.64Q64.90-13.47 63.92-13.97L63.92-13.97L63.92-13.97Q62.94-14.46 61.79-14.46L61.79-14.46L61.79-14.46Q59.26-14.46 57.86-12.80L57.86-12.80L57.86-12.80Q56.45-11.14 56.45-8.38L56.45-8.38L56.45-8.38Q56.45-7.14 56.85-6L56.85-6L56.85-6Q57.25-4.86 57.97-4.02L57.97-4.02L57.97-4.02Q58.69-3.17 59.66-2.67L59.66-2.67L59.66-2.67Q60.64-2.18 61.79-2.18L61.79-2.18L61.79-2.18Q63.04-2.18 64.03-2.62L64.03-2.62L64.03-2.62Q65.02-3.07 65.71-3.89L65.71-3.89L65.71-3.89Q66.40-4.70 66.77-5.82L66.77-5.82L66.77-5.82Q67.14-6.94 67.14-8.32zM53.50-8.32L53.50-8.32L53.50-8.32Q53.50-10.34 54.14-11.95L54.14-11.95L54.14-11.95Q54.78-13.57 55.89-14.69L55.89-14.69L55.89-14.69Q56.99-15.81 58.51-16.42L58.51-16.42L58.51-16.42Q60.03-17.02 61.79-17.02L61.79-17.02L61.79-17.02Q63.52-17.02 65.04-16.42L65.04-16.42L65.04-16.42Q66.56-15.81 67.68-14.69L67.68-14.69L67.68-14.69Q68.80-13.57 69.44-11.97L69.44-11.97L69.44-11.97Q70.08-10.37 70.08-8.38L70.08-8.38L70.08-8.38Q70.08-6.40 69.46-4.78L69.46-4.78L69.46-4.78Q68.83-3.17 67.71-2.02L67.71-2.02L67.71-2.02Q66.59-0.86 65.07-0.24L65.07-0.24L65.07-0.24Q63.55 0.38 61.79 0.38L61.79 0.38L61.79 0.38Q60 0.38 58.48-0.26L58.48-0.26L58.48-0.26Q56.96-0.90 55.86-2.05L55.86-2.05L55.86-2.05Q54.75-3.20 54.13-4.80L54.13-4.80L54.13-4.80Q53.50-6.40 53.50-8.32" fill="#51cacc" stroke="none" stroke-width="none" transform="translate(-139.78999853134155,8.945424223507157)" style="fill: rgb(222, 157, 214);"></path></g><g class="path" style="opacity: 1; transform-origin: -58.86px 0.625424px; animation: 1s linear -0.465882s infinite normal forwards running fade-64b1c8be-6046-4bf7-9fba-1d6a73f28eb9;"><path d="M86.27-8.32L86.27-8.32L86.27-8.32Q86.27-9.57 85.87-10.69L85.87-10.69L85.87-10.69Q85.47-11.81 84.75-12.64L84.75-12.64L84.75-12.64Q84.03-13.47 83.06-13.97L83.06-13.97L83.06-13.97Q82.08-14.46 80.93-14.46L80.93-14.46L80.93-14.46Q78.40-14.46 76.99-12.80L76.99-12.80L76.99-12.80Q75.58-11.14 75.58-8.38L75.58-8.38L75.58-8.38Q75.58-7.14 75.98-6L75.98-6L75.98-6Q76.38-4.86 77.10-4.02L77.10-4.02L77.10-4.02Q77.82-3.17 78.80-2.67L78.80-2.67L78.80-2.67Q79.78-2.18 80.93-2.18L80.93-2.18L80.93-2.18Q82.18-2.18 83.17-2.62L83.17-2.62L83.17-2.62Q84.16-3.07 84.85-3.89L84.85-3.89L84.85-3.89Q85.54-4.70 85.90-5.82L85.90-5.82L85.90-5.82Q86.27-6.94 86.27-8.32zM72.64-8.32L72.64-8.32L72.64-8.32Q72.64-10.34 73.28-11.95L73.28-11.95L73.28-11.95Q73.92-13.57 75.02-14.69L75.02-14.69L75.02-14.69Q76.13-15.81 77.65-16.42L77.65-16.42L77.65-16.42Q79.17-17.02 80.93-17.02L80.93-17.02L80.93-17.02Q82.66-17.02 84.18-16.42L84.18-16.42L84.18-16.42Q85.70-15.81 86.82-14.69L86.82-14.69L86.82-14.69Q87.94-13.57 88.58-11.97L88.58-11.97L88.58-11.97Q89.22-10.37 89.22-8.38L89.22-8.38L89.22-8.38Q89.22-6.40 88.59-4.78L88.59-4.78L88.59-4.78Q87.97-3.17 86.85-2.02L86.85-2.02L86.85-2.02Q85.73-0.86 84.21-0.24L84.21-0.24L84.21-0.24Q82.69 0.38 80.93 0.38L80.93 0.38L80.93 0.38Q79.14 0.38 77.62-0.26L77.62-0.26L77.62-0.26Q76.10-0.90 74.99-2.05L74.99-2.05L74.99-2.05Q73.89-3.20 73.26-4.80L73.26-4.80L73.26-4.80Q72.64-6.40 72.64-8.32" fill="#51cacc" stroke="none" stroke-width="none" transform="translate(-139.78999853134155,8.945424223507157)" style="fill: rgb(255, 112, 142);"></path></g><g class="path" style="opacity: 1; transform-origin: -42.635px -2.70458px; animation: 1s linear -0.427059s infinite normal forwards running fade-64b1c8be-6046-4bf7-9fba-1d6a73f28eb9;"><path d="M95.78-23.68L95.78-5.50L95.78-5.50Q95.78-3.78 96.50-2.94L96.50-2.94L96.50-2.94Q97.22-2.11 98.50-2.11L98.50-2.11L98.50-2.11Q99.10-2.11 99.68-2.26L99.68-2.26L99.68-2.26Q100.26-2.40 100.70-2.59L100.70-2.59L101.41-0.26L101.41-0.26Q100.83 0 99.98 0.19L99.98 0.19L99.98 0.19Q99.14 0.38 98.11 0.38L98.11 0.38L98.11 0.38Q96.99 0.38 96.05 0.06L96.05 0.06L96.05 0.06Q95.10-0.26 94.40-0.93L94.40-0.93L94.40-0.93Q93.70-1.60 93.30-2.66L93.30-2.66L93.30-2.66Q92.90-3.71 92.90-5.22L92.90-5.22L92.90-23.68L95.78-23.68" fill="#51cacc" stroke="none" stroke-width="none" transform="translate(-139.78999853134155,8.945424223507157)" style="fill: rgb(81, 202, 204);"></path></g><g class="path" style="opacity: 1; transform-origin: -19.02px -2.25457px; animation: 1s linear -0.388235s infinite normal forwards running fade-64b1c8be-6046-4bf7-9fba-1d6a73f28eb9;"><path d="M114.05 0L114.05-22.40L127.49-22.40L127.49-19.78L117.09-19.78L117.09-12.96L126.05-12.96L126.05-10.40L117.09-10.40L117.09-2.62L127.49-2.62L127.49 0L114.05 0" fill="#51cacc" stroke="none" stroke-width="none" transform="translate(-139.78999853134155,8.945424223507157)" style="fill: rgb(157, 248, 113);"></path></g><g class="path" style="opacity: 1; transform-origin: -3.29501px 0.465425px; animation: 1s linear -0.349412s infinite normal forwards running fade-64b1c8be-6046-4bf7-9fba-1d6a73f28eb9;"><path d="M134.98 0L128.29-15.87L130.91-16.96L136.58-3.26L142.24-16.96L144.70-15.87L137.98 0L134.98 0" fill="#51cacc" stroke="none" stroke-width="none" transform="translate(-139.78999853134155,8.945424223507157)" style="fill: rgb(224, 255, 119);"></path></g><g class="path" style="opacity: 1; transform-origin: 13.375px 0.625424px; animation: 1s linear -0.310588s infinite normal forwards running fade-64b1c8be-6046-4bf7-9fba-1d6a73f28eb9;"><path d="M160.42-7.14L148.77-7.14L148.77-7.14Q149.06-4.80 150.40-3.49L150.40-3.49L150.40-3.49Q151.74-2.18 153.95-2.18L153.95-2.18L153.95-2.18Q155.39-2.18 156.54-2.48L156.54-2.48L156.54-2.48Q157.70-2.78 158.75-3.26L158.75-3.26L159.42-0.80L159.42-0.80Q158.27-0.26 156.83 0.06L156.83 0.06L156.83 0.06Q155.39 0.38 153.60 0.38L153.60 0.38L153.60 0.38Q151.81 0.38 150.37-0.21L150.37-0.21L150.37-0.21Q148.93-0.80 147.92-1.90L147.92-1.90L147.92-1.90Q146.91-3.01 146.37-4.62L146.37-4.62L146.37-4.62Q145.82-6.24 145.82-8.32L145.82-8.32L145.82-8.32Q145.82-10.18 146.37-11.78L146.37-11.78L146.37-11.78Q146.91-13.38 147.90-14.54L147.90-14.54L147.90-14.54Q148.90-15.71 150.27-16.37L150.27-16.37L150.27-16.37Q151.65-17.02 153.34-17.02L153.34-17.02L153.34-17.02Q155.14-17.02 156.48-16.42L156.48-16.42L156.48-16.42Q157.82-15.81 158.72-14.75L158.72-14.75L158.72-14.75Q159.62-13.70 160.06-12.29L160.06-12.29L160.06-12.29Q160.51-10.88 160.51-9.31L160.51-9.31L160.51-9.31Q160.51-8.19 160.42-7.14L160.42-7.14zM153.28-14.53L153.28-14.53L153.28-14.53Q151.39-14.53 150.19-13.25L150.19-13.25L150.19-13.25Q148.99-11.97 148.74-9.47L148.74-9.47L157.86-9.47L157.86-9.47Q157.86-11.90 156.64-13.22L156.64-13.22L156.64-13.22Q155.42-14.53 153.28-14.53" fill="#51cacc" stroke="none" stroke-width="none" transform="translate(-139.78999853134155,8.945424223507157)" style="fill: rgb(222, 157, 214);"></path></g><g class="path" style="opacity: 1; transform-origin: 29.505px 0.435425px; animation: 1s linear -0.271765s infinite normal forwards running fade-64b1c8be-6046-4bf7-9fba-1d6a73f28eb9;"><path d="M174.24-16.83L173.38-13.86L173.38-13.86Q172.77-14.11 171.94-14.11L171.94-14.11L171.94-14.11Q171.04-14.11 170.19-13.73L170.19-13.73L170.19-13.73Q169.34-13.34 168.69-12.58L168.69-12.58L168.69-12.58Q168.03-11.81 167.63-10.61L167.63-10.61L167.63-10.61Q167.23-9.41 167.23-7.78L167.23-7.78L167.23 0L164.35 0L164.35-16.64L167.14-16.64L167.14-13.02L167.14-13.02Q167.42-13.79 167.90-14.53L167.90-14.53L167.90-14.53Q168.38-15.26 169.04-15.81L169.04-15.81L169.04-15.81Q169.70-16.35 170.56-16.69L170.56-16.69L170.56-16.69Q171.42-17.02 172.48-17.02L172.48-17.02L172.48-17.02Q172.96-17.02 173.42-16.98L173.42-16.98L173.42-16.98Q173.89-16.93 174.24-16.83L174.24-16.83" fill="#51cacc" stroke="none" stroke-width="none" transform="translate(-139.78999853134155,8.945424223507157)" style="fill: rgb(255, 112, 142);"></path></g><g class="path" style="opacity: 1; transform-origin: 43.06px 4.14542px; animation: 1s linear -0.232941s infinite normal forwards running fade-64b1c8be-6046-4bf7-9fba-1d6a73f28eb9;"><path d="M177.54 7.42L177.54 7.42L177.54 7.42Q176.58 7.42 175.86 7.23L175.86 7.23L175.86 7.23Q175.14 7.04 174.72 6.78L174.72 6.78L175.36 4.38L175.36 4.38Q175.74 4.61 176.30 4.77L176.30 4.77L176.30 4.77Q176.86 4.93 177.60 4.93L177.60 4.93L177.60 4.93Q178.27 4.93 178.86 4.74L178.86 4.74L178.86 4.74Q179.46 4.54 180.00 4.06L180.00 4.06L180.00 4.06Q180.54 3.58 181.04 2.75L181.04 2.75L181.04 2.75Q181.54 1.92 182.02 0.67L182.02 0.67L182.75-1.25L181.22-1.25L174.72-15.87L177.28-17.02L183.49-3.17L188.32-16.90L190.98-15.87L184.86 0.83L184.86 0.83Q184.16 2.75 183.38 4.02L183.38 4.02L183.38 4.02Q182.59 5.28 181.70 6.05L181.70 6.05L181.70 6.05Q180.80 6.82 179.76 7.12L179.76 7.12L179.76 7.12Q178.72 7.42 177.54 7.42" fill="#51cacc" stroke="none" stroke-width="none" transform="translate(-139.78999853134155,8.945424223507157)" style="fill: rgb(81, 202, 204);"></path></g><g class="path" style="opacity: 1; transform-origin: 69.83px -2.25457px; animation: 1s linear -0.194118s infinite normal forwards running fade-64b1c8be-6046-4bf7-9fba-1d6a73f28eb9;"><path d="M201.22-19.71L201.22-22.40L218.02-22.40L218.02-19.71L211.14-19.71L211.14 0L208.10 0L208.10-19.71L201.22-19.71" fill="#51cacc" stroke="none" stroke-width="none" transform="translate(-139.78999853134155,8.945424223507157)" style="fill: rgb(157, 248, 113);"></path></g><g class="path" style="opacity: 1; transform-origin: 88.1px -2.89458px; animation: 1s linear -0.155294s infinite normal forwards running fade-64b1c8be-6046-4bf7-9fba-1d6a73f28eb9;"><path d="M223.78-23.68L223.78-13.98L223.78-13.98Q224.67-15.30 226.03-16.16L226.03-16.16L226.03-16.16Q227.39-17.02 229.28-17.02L229.28-17.02L229.28-17.02Q232.10-17.02 233.49-15.33L233.49-15.33L233.49-15.33Q234.88-13.63 234.88-10.85L234.88-10.85L234.88 0L232 0L232-10.53L232-10.53Q232-12.35 231.18-13.42L231.18-13.42L231.18-13.42Q230.37-14.50 228.83-14.50L228.83-14.50L228.83-14.50Q228.10-14.50 227.38-14.22L227.38-14.22L227.38-14.22Q226.66-13.95 226.02-13.47L226.02-13.47L226.02-13.47Q225.38-12.99 224.80-12.35L224.80-12.35L224.80-12.35Q224.22-11.71 223.78-11.01L223.78-11.01L223.78 0L220.90 0L220.90-23.68L223.78-23.68" fill="#51cacc" stroke="none" stroke-width="none" transform="translate(-139.78999853134155,8.945424223507157)" style="fill: rgb(224, 255, 119);"></path></g><g class="path" style="opacity: 1; transform-origin: 101.49px 0.625425px; animation: 1s linear -0.116471s infinite normal forwards running fade-64b1c8be-6046-4bf7-9fba-1d6a73f28eb9;"><path d="M242.72-16.64L242.72 0L239.84 0L239.84-16.64L242.72-16.64" fill="#51cacc" stroke="none" stroke-width="none" transform="translate(-139.78999853134155,8.945424223507157)" style="fill: rgb(222, 157, 214);"></path></g><g class="path" style="opacity: 1; transform-origin: 101.49px -12.5596px; animation: 1s linear -0.0776471s infinite normal forwards running fade-64b1c8be-6046-4bf7-9fba-1d6a73f28eb9;"><path d="M241.28-19.49L241.28-19.49L241.28-19.49Q240.45-19.49 239.86-20.08L239.86-20.08L239.86-20.08Q239.26-20.67 239.26-21.50L239.26-21.50L239.26-21.50Q239.26-22.43 239.81-22.98L239.81-22.98L239.81-22.98Q240.35-23.52 241.28-23.52L241.28-23.52L241.28-23.52Q242.11-23.52 242.70-22.93L242.70-22.93L242.70-22.93Q243.30-22.34 243.30-21.50L243.30-21.50L243.30-21.50Q243.30-20.58 242.75-20.03L242.75-20.03L242.75-20.03Q242.21-19.49 241.28-19.49" fill="#51cacc" stroke="none" stroke-width="none" transform="translate(-139.78999853134155,8.945424223507157)" style="fill: rgb(255, 112, 142);"></path></g><g class="path" style="opacity: 1; transform-origin: 115.04px 0.435425px; animation: 1s linear -0.0388235s infinite normal forwards running fade-64b1c8be-6046-4bf7-9fba-1d6a73f28eb9;"><path d="M250.62-16.64L250.62-13.86L250.62-13.86Q251.52-15.20 252.91-16.11L252.91-16.11L252.91-16.11Q254.30-17.02 256.22-17.02L256.22-17.02L256.22-17.02Q259.04-17.02 260.43-15.33L260.43-15.33L260.43-15.33Q261.82-13.63 261.82-10.85L261.82-10.85L261.82 0L258.94 0L258.94-10.53L258.94-10.53Q258.94-12.35 258.11-13.42L258.11-13.42L258.11-13.42Q257.28-14.50 255.74-14.50L255.74-14.50L255.74-14.50Q255.01-14.50 254.30-14.22L254.30-14.22L254.30-14.22Q253.60-13.95 252.94-13.47L252.94-13.47L252.94-13.47Q252.29-12.99 251.73-12.35L251.73-12.35L251.73-12.35Q251.17-11.71 250.72-11.01L250.72-11.01L250.72 0L247.84 0L247.84-16.64L250.62-16.64" fill="#51cacc" stroke="none" stroke-width="none" transform="translate(-139.78999853134155,8.945424223507157)" style="fill: rgb(81, 202, 204);"></path></g><g class="path" style="opacity: 1; transform-origin: 133.31px 4.14542px; animation: 1s linear 0s infinite normal forwards running fade-64b1c8be-6046-4bf7-9fba-1d6a73f28eb9;"><path d="M273.38-17.02L273.38-17.02L273.38-17.02Q274.82-17.02 275.95-16.54L275.95-16.54L275.95-16.54Q277.09-16.06 277.92-15.36L277.92-15.36L277.92-16.64L280.54-16.64L280.54-0.38L280.54-0.38Q280.54 1.70 280 3.17L280 3.17L280 3.17Q279.46 4.64 278.45 5.58L278.45 5.58L278.45 5.58Q277.44 6.53 276.03 6.98L276.03 6.98L276.03 6.98Q274.62 7.42 272.90 7.42L272.90 7.42L272.90 7.42Q271.39 7.42 270.02 7.07L270.02 7.07L270.02 7.07Q268.64 6.72 267.55 6.02L267.55 6.02L268.61 3.52L268.61 3.52Q269.38 4.13 270.40 4.53L270.40 4.53L270.40 4.53Q271.42 4.93 272.90 4.93L272.90 4.93L272.90 4.93Q275.17 4.93 276.46 3.74L276.46 3.74L276.46 3.74Q277.76 2.56 277.76-0.10L277.76-0.10L277.76-2.14L277.76-2.14Q277.12-1.38 275.92-0.69L275.92-0.69L275.92-0.69Q274.72 0 273.06 0L273.06 0L273.06 0Q271.65 0 270.30-0.56L270.30-0.56L270.30-0.56Q268.96-1.12 267.94-2.19L267.94-2.19L267.94-2.19Q266.91-3.26 266.29-4.82L266.29-4.82L266.29-4.82Q265.66-6.37 265.66-8.38L265.66-8.38L265.66-8.38Q265.66-10.24 266.27-11.82L266.27-11.82L266.27-11.82Q266.88-13.41 267.92-14.56L267.92-14.56L267.92-14.56Q268.96-15.71 270.37-16.37L270.37-16.37L270.37-16.37Q271.78-17.02 273.38-17.02zM273.70-2.56L273.70-2.56L273.70-2.56Q274.98-2.56 276-3.14L276-3.14L276-3.14Q277.02-3.71 277.66-4.48L277.66-4.48L277.66-13.18L277.66-13.18Q276.93-13.70 275.97-14.11L275.97-14.11L275.97-14.11Q275.01-14.53 273.66-14.53L273.66-14.53L273.66-14.53Q272.67-14.53 271.76-14.13L271.76-14.13L271.76-14.13Q270.85-13.73 270.14-12.96L270.14-12.96L270.14-12.96Q269.44-12.19 269.02-11.09L269.02-11.09L269.02-11.09Q268.61-9.98 268.61-8.54L268.61-8.54L268.61-8.54Q268.61-7.17 269.02-6.06L269.02-6.06L269.02-6.06Q269.44-4.96 270.14-4.18L270.14-4.18L270.14-4.18Q270.85-3.39 271.76-2.98L271.76-2.98L271.76-2.98Q272.67-2.56 273.70-2.56" fill="#51cacc" stroke="none" stroke-width="none" transform="translate(-139.78999853134155,8.945424223507157)" style="fill: rgb(157, 248, 113);"></path></g></g>
</g>
</g>
<style id="fade-64b1c8be-6046-4bf7-9fba-1d6a73f28eb9" data-anikit="">@keyframes fade-64b1c8be-6046-4bf7-9fba-1d6a73f28eb9
{
  0% {
    animation-timing-function: cubic-bezier(0.2963,0.3793,0.6165,0.7086);
    opacity: 1;
  }
  100% {
    opacity: 0;
  }
}</style></svg>