<?xml version="1.0" encoding="utf-8"?>
<svg xmlns="http://www.w3.org/2000/svg" style="margin: auto; display: block; shape-rendering: auto; background: rgba(0, 0, 0, 0) none repeat scroll 0% 0%;" width="280" height="250" preserveAspectRatio="xMidYMid">
<style type="text/css">
  text {
    text-anchor: middle; font-size: 80px; opacity: 0;
  }
</style>
<g style="transform-origin:140px 125px;transform:scale(1)">
<g transform="translate(140,125)">
  <g transform="translate(0,0)"><g class="path" style="transform: matrix(1, 0, 0, 1, 0, 0); transform-origin: -83.1367px 2.22172px 0px; animation: 1s linear -0.55s infinite normal forwards running bounce-4e91f495-73b7-45d1-b3bb-e31cab146ca8;"><path d="M8.24-24.88L8.24-24.88L8.24-24.88Q8.24-17.28 16.32-14.72L16.32-14.72L16.32-14.72Q19.52-13.76 21.64-13.64L21.64-13.64L21.64-13.64Q23.76-13.52 23.92-13.68L23.92-13.68L24-12L23.52-12L23.52-12Q14.56-12 9.92-16.48L9.92-16.48L9.92-16.48Q6.56-19.60 6.56-24.88L6.56-24.88L6.56-24.88Q6.56-36.24 18.60-42.48L18.60-42.48L18.60-42.48Q30.64-48.72 52.48-48.72L52.48-48.72L52.48-48.72Q63.92-48.72 68.56-46.24L68.56-46.24L68.56-46.24Q73.20-43.76 73.20-39.12L73.20-39.12L73.20-39.12Q73.20-35.44 70.88-31.64L70.88-31.64L70.88-31.64Q68.56-27.84 65.28-23.76L65.28-23.76L65.28-23.76Q62-19.68 60.80-16.88L60.80-16.88L65.04-16.88L64.88-15.44L60.24-15.44L60.24-15.44Q59.60-13.36 59.60-11.68L59.60-11.68L57.92-11.68L57.92-11.68Q57.92-13.60 58.40-15.44L58.40-15.44L48.24-15.44L46.56-6.08L46.56-6.08Q44.88 2.56 38.48 7.48L38.48 7.48L38.48 7.48Q32.08 12.40 24.72 12.40L24.72 12.40L24.72 10.80L24.72 10.80Q30.16 10.72 31.72 8.48L31.72 8.48L31.72 8.48Q33.28 6.24 34.80-2.48L34.80-2.48L36.96-15.44L32.88-15.44L33.04-16.88L37.20-16.88L42.40-46.72L42.40-46.72Q26-45.36 17.12-39.72L17.12-39.72L17.12-39.72Q8.24-34.08 8.24-24.88zM71.28-39.12L71.28-39.12L71.28-39.12Q71.28-47.12 53.12-47.12L53.12-47.12L53.12-47.12Q49.84-24.48 48.48-16.88L48.48-16.88L58.96-16.88L58.96-16.88Q60.16-19.92 63.36-24.04L63.36-24.04L63.36-24.04Q66.56-28.16 68.92-31.92L68.92-31.92L68.92-31.92Q71.28-35.68 71.28-39.12" fill="#51cacc" stroke="none" stroke-width="none" transform="translate(-123.01666259765625,20.381726023356112)" style="fill: rgb(81, 202, 204);"></path></g><g class="path" style="transform: matrix(1, 0, 0, 1, 0, 0); transform-origin: -33.4967px 5.18172px 0px; animation: 1s linear -0.44s infinite normal forwards running bounce-4e91f495-73b7-45d1-b3bb-e31cab146ca8;"><path d="M86.40 0.72L86.40 0.72Q80.24 0.72 77.04-2.36L77.04-2.36L77.04-2.36Q73.84-5.44 73.84-10.12L73.84-10.12L73.84-10.12Q73.84-14.80 74.68-18.12L74.68-18.12L74.68-18.12Q75.52-21.44 77.44-24.52L77.44-24.52L77.44-24.52Q79.36-27.60 83.24-29.36L83.24-29.36L83.24-29.36Q87.12-31.12 92.92-31.12L92.92-31.12L92.92-31.12Q98.72-31.12 101.96-28.04L101.96-28.04L101.96-28.04Q105.20-24.96 105.20-19.60L105.20-19.60L105.20-19.60Q105.20-10.48 100.36-4.88L100.36-4.88L100.36-4.88Q95.52 0.72 86.40 0.72L86.40 0.72zM82.88-7.52L82.88-7.52L82.88-7.52Q82.88-1.12 86.60-1.12L86.60-1.12L86.60-1.12Q90.32-1.12 93.24-7.56L93.24-7.56L93.24-7.56Q96.16-14 96.16-22.88L96.16-22.88L96.16-22.88Q96.16-29.60 92.52-29.60L92.52-29.60L92.52-29.60Q88.88-29.60 85.88-23.48L85.88-23.48L85.88-23.48Q82.88-17.36 82.88-7.52" fill="#51cacc" stroke="none" stroke-width="none" transform="translate(-123.01666259765625,20.381726023356112)" style="fill: rgb(157, 248, 113);"></path></g><g class="path" style="transform: matrix(1, 0, 0, 1, 0, 0); transform-origin: 1.14334px 4.82173px 0px; animation: 1s linear -0.33s infinite normal forwards running bounce-4e91f495-73b7-45d1-b3bb-e31cab146ca8;"><path d="M110.80-27.28L109.60-28.24L109.60-28.24Q112-31.12 115.64-31.12L115.64-31.12L115.64-31.12Q119.28-31.12 121.28-29.28L121.28-29.28L121.28-29.28Q123.28-27.44 123.28-24.08L123.28-24.08L123.28-23.60L123.28-23.60Q126.88-31.12 132.64-31.12L132.64-31.12L132.64-31.12Q138.80-31.12 138.80-24.72L138.80-24.72L138.80-24.72Q138.80-22.08 137.04-19.12L137.04-19.12L137.04-19.12Q135.28-16.16 133.52-13.48L133.52-13.48L133.52-13.48Q131.76-10.80 131.76-8.72L131.76-8.72L129.84-8.72L129.84-8.72Q129.84-11.68 133.28-16.72L133.28-16.72L133.28-16.72Q136.72-21.76 136.72-24.52L136.72-24.52L136.72-24.52Q136.72-27.28 135.64-28.28L135.64-28.28L135.64-28.28Q134.56-29.28 132.44-29.28L132.44-29.28L132.44-29.28Q130.32-29.28 128.28-27.44L128.28-27.44L128.28-27.44Q126.24-25.60 124.88-22.80L124.88-22.80L124.88-22.80Q122.72-18.64 122-16L122-16L122-15.92L119.12 0L109.52 0L114.80-29.52L114.80-29.52Q112.40-29.28 110.80-27.28L110.80-27.28" fill="#51cacc" stroke="none" stroke-width="none" transform="translate(-123.01666259765625,20.381726023356112)" style="fill: rgb(224, 255, 119);"></path></g><g class="path" style="transform: matrix(1, 0, 0, 1, 0, 0); transform-origin: 34.5033px 12.1417px 0px; animation: 1s linear -0.22s infinite normal forwards running bounce-4e91f495-73b7-45d1-b3bb-e31cab146ca8;"><path d="M164-26.32L164-26.32L164-26.32Q164-26.56 164.80-30.40L164.80-30.40L164.80-30.40Q170.72-30.40 173.52-30.88L173.52-30.88L174.64-31.12L166.56 13.04L166.56 13.04Q168.96 12.80 170.56 10.80L170.56 10.80L171.76 11.76L171.76 11.76Q169.36 14.64 165.72 14.64L165.72 14.64L165.72 14.64Q162.08 14.64 160.08 12.80L160.08 12.80L160.08 12.80Q158.08 10.96 158.08 7.60L158.08 7.60L158.08 7.60Q158.08 6.16 160-4.40L160-4.40L160-4.40Q156.72 0.72 151.44 0.72L151.44 0.72L151.44 0.72Q146.16 0.72 143.28-2.36L143.28-2.36L143.28-2.36Q140.40-5.44 140.40-10.80L140.40-10.80L140.40-10.80Q140.40-20.24 144.88-25.68L144.88-25.68L144.88-25.68Q149.36-31.12 156.48-31.12L156.48-31.12L156.48-31.12Q162.16-31.12 164-26.32zM149.44-7.52L149.44-7.52Q149.44-3.84 150.20-2.48L150.20-2.48L150.20-2.48Q150.96-1.12 152.96-1.12L152.96-1.12L152.96-1.12Q154.96-1.12 157.08-3.52L157.08-3.52L157.08-3.52Q159.20-5.92 160.16-8.04L160.16-8.04L160.16-8.04Q161.12-10.16 161.12-10.48L161.12-10.48L163.20-21.76L163.20-22.08L163.20-22.08Q163.20-27.04 160.08-28.80L160.08-28.80L160.08-28.80Q158.64-29.60 156.48-29.60L156.48-29.60L156.48-29.60Q153.92-29.60 151.68-22.08L151.68-22.08L151.68-22.08Q149.44-14.56 149.44-7.52L149.44-7.52" fill="#51cacc" stroke="none" stroke-width="none" transform="translate(-123.01666259765625,20.381726023356112)" style="fill: rgb(222, 157, 214);"></path></g><g class="path" style="transform: matrix(1, 0, 0, 1, 0, 0); transform-origin: 71.9433px 5.18172px 0px; animation: 1s linear -0.11s infinite normal forwards running bounce-4e91f495-73b7-45d1-b3bb-e31cab146ca8;"><path d="M205.92 0.72L205.92 0.72L205.92 0.72Q198.88 0.72 198.24-5.44L198.24-5.44L198.24-5.44Q194.72 0.72 189.36 0.72L189.36 0.72L189.36 0.72Q184.00 0.72 180.84-2.52L180.84-2.52L180.84-2.52Q177.68-5.76 177.68-11.60L177.68-11.60L177.68-11.60Q177.68-20.72 182.16-25.92L182.16-25.92L182.16-25.92Q186.64-31.12 193.76-31.12L193.76-31.12L193.76-31.12Q199.60-31.12 201.52-25.60L201.52-25.60L201.52-25.60Q201.92-28 202.40-30.40L202.40-30.40L202.40-30.40Q208.32-30.40 211.20-30.88L211.20-30.88L212.24-31.12L206.72-0.88L206.72-0.88Q209.12-1.12 210.72-3.12L210.72-3.12L211.92-2.16L211.92-2.16Q209.52 0.72 205.92 0.72zM186.72-7.52L186.72-7.52Q186.72-3.92 187.64-2.52L187.64-2.52L187.64-2.52Q188.56-1.12 190.48-1.12L190.48-1.12L190.48-1.12Q192.40-1.12 194.40-3.20L194.40-3.20L194.40-3.20Q197.04-5.92 198.64-10.08L198.64-10.08L198.64-10.08Q198.88-11.12 199.56-15.08L199.56-15.08L199.56-15.08Q200.24-19.04 200.72-21.60L200.72-21.60L200.72-21.60Q200.48-24.64 199.04-26.88L199.04-26.88L199.04-26.88Q197.60-29.12 195.44-29.12L195.44-29.12L195.44-29.12Q191.52-29.12 189.12-22.12L189.12-22.12L189.12-22.12Q186.72-15.12 186.72-7.52L186.72-7.52" fill="#51cacc" stroke="none" stroke-width="none" transform="translate(-123.01666259765625,20.381726023356112)" style="fill: rgb(255, 112, 142);"></path></g><g class="path" style="transform: matrix(1, 0, 0, 1, 0, 0); transform-origin: 111.583px 5.18172px 0px; animation: 1s linear 0s infinite normal forwards running bounce-4e91f495-73b7-45d1-b3bb-e31cab146ca8;"><path d="M247.36-0.88L247.36-0.88L247.36-0.88Q249.28-0.88 251.36-3.12L251.36-3.12L252.56-2.16L252.56-2.16Q252.00-1.04 250.08-0.16L250.08-0.16L250.08-0.16Q248.16 0.72 245.84 0.72L245.84 0.72L245.84 0.72Q238.56 0.72 238.56-5.84L238.56-5.84L238.56-5.84Q238.56-8.64 240.00-15.84L240.00-15.84L240.00-15.84Q241.44-23.04 241.44-25.28L241.44-25.28L241.44-25.28Q241.44-28.72 238.16-28.72L238.16-28.72L238.16-28.72Q235.52-28.72 233.08-25.28L233.08-25.28L233.08-25.28Q230.64-21.84 229.04-15.84L229.04-15.84L226.32-0.88L226.32-0.88Q228.80-1.12 230.40-3.12L230.40-3.12L231.60-2.16L231.60-2.16Q229.20 0.72 225.60 0.72L225.60 0.72L225.60 0.72Q222.00 0.72 219.96-1.12L219.96-1.12L219.96-1.12Q217.92-2.96 217.92-5.92L217.92-5.92L217.92-5.92Q217.92-7.04 219.20-14.72L219.20-14.72L221.84-29.52L221.84-29.52Q219.44-29.28 217.84-27.28L217.84-27.28L216.64-28.24L216.64-28.24Q219.04-31.12 222.68-31.12L222.68-31.12L222.68-31.12Q226.32-31.12 228.32-29.28L228.32-29.28L228.32-29.28Q230.32-27.44 230.32-24.08L230.32-24.08L230.32-23.60L230.32-23.60Q233.60-31.12 240.56-31.12L240.56-31.12L240.56-31.12Q245.28-31.12 247.92-28.44L247.92-28.44L247.92-28.44Q250.56-25.76 250.56-21.04L250.56-21.04L250.56-21.04Q250.56-18.56 249.04-11.48L249.04-11.48L249.04-11.48Q247.52-4.40 247.36-0.88" fill="#51cacc" stroke="none" stroke-width="none" transform="translate(-123.01666259765625,20.381726023356112)" style="fill: rgb(81, 202, 204);"></path></g></g>
</g>
</g>
<style id="bounce-4e91f495-73b7-45d1-b3bb-e31cab146ca8" data-anikit="">@keyframes bounce-4e91f495-73b7-45d1-b3bb-e31cab146ca8
{
  0% {
    animation-timing-function: cubic-bezier(0.1361,0.2514,0.2175,0.8786);
    transform: translate(0,0px) scaleY(1);
  }
  37% {
    animation-timing-function: cubic-bezier(0.7674,0.1844,0.8382,0.7157);
    transform: translate(0,-39.96px) scaleY(1);
  }
  72% {
    animation-timing-function: cubic-bezier(0.1118,0.2149,0.2172,0.941);
    transform: translate(0,0px) scaleY(1);
  }
  87% {
    animation-timing-function: cubic-bezier(0.7494,0.2259,0.8209,0.6963);
    transform: translate(0,19.900000000000002px) scaleY(0.602);
  }
  100% {
    transform: translate(0,0px) scaleY(1);
  }
}</style></svg>