<?xml version="1.0" encoding="utf-8"?>
<svg xmlns="http://www.w3.org/2000/svg" style="margin: auto; display: block; shape-rendering: auto; background: rgba(0, 0, 0, 0) none repeat scroll 0% 0%;" width="280" height="105" preserveAspectRatio="xMidYMid">
<style type="text/css">
  text {
    text-anchor: middle; font-size: 32px; opacity: 0;
  }
</style>
<g style="transform-origin: 140px 52.5px 0px; transform: scale(0.4);">
<g transform="translate(140,52.5)">
  <g transform="translate(0,0)"><g class="path" style="transform: matrix(1, 0, 0, 1, 0, 0); transform-origin: -289.74px 2.80059px 0px; animation: 1s linear -0.621177s infinite normal forwards running bounce-59601477-9ea8-454d-a34a-3308e9a89ffb;"><path d="M24.72 15.52L24.72 15.52L24.72 15.52Q33.12 15.52 37.80 12.08L37.80 12.08L37.80 12.08Q42.48 8.64 42.48 2.96L42.48 2.96L42.48 2.96Q42.48-1.12 40.44-4.24L40.44-4.24L40.44-4.24Q38.40-7.36 35.36-9.40L35.36-9.40L35.36-9.40Q32.32-11.44 29.16-13.44L29.16-13.44L29.16-13.44Q26-15.44 23.28-18.48L23.28-18.48L23.28-18.48Q20.56-21.52 19.68-25.36L19.68-25.36L19.68-25.36Q12.40-27.52 10.08-34.40L10.08-34.40L10.08-34.40Q9.20-37.04 9.20-39.92L9.20-39.92L9.20-39.92Q9.20-42.80 10.08-45.92L10.08-45.92L10.08-45.92Q11.92-52.08 16.08-55.20L16.08-55.20L16.96-53.92L16.96-53.92Q13.20-51.20 11.52-45.44L11.52-45.44L11.52-45.44Q10.72-42.56 10.72-39.92L10.72-39.92L10.72-39.92Q10.72-37.28 11.52-34.88L11.52-34.88L11.52-34.88Q13.44-29.04 19.44-27.04L19.44-27.04L19.44-27.04Q19.28-27.92 19.28-29.76L19.28-29.76L19.28-29.76Q19.28-40.24 26.88-46.72L26.88-46.72L26.88-46.72Q34.48-53.20 45.44-53.20L45.44-53.20L45.44-53.20Q52.64-53.20 56.96-49.28L56.96-49.28L56.96-49.28Q60.64-45.84 60.64-40.84L60.64-40.84L60.64-40.84Q60.64-35.84 57.28-32.20L57.28-32.20L57.28-32.20Q53.92-28.56 48.24-28.56L48.24-28.56L48.24-28.56Q45.12-28.56 43.12-29.76L43.12-29.76L43.12-29.76Q39.04-26.64 33.44-25.28L33.44-25.28L33.44-25.28Q35.04-23.76 40.92-19.68L40.92-19.68L40.92-19.68Q46.80-15.60 49.72-11.88L49.72-11.88L49.72-11.88Q52.64-8.16 52.64-3.20L52.64-3.20L52.64-3.20Q52.64 5.92 45.56 11.60L45.56 11.60L45.56 11.60Q38.48 17.28 27.64 17.28L27.64 17.28L27.64 17.28Q16.80 17.28 11.28 12.48L11.28 12.48L11.28 12.48Q6.48 8.40 6.48 2.52L6.48 2.52L6.48 2.52Q6.48-3.36 10.28-7.56L10.28-7.56L10.28-7.56Q14.08-11.76 19.76-11.76L19.76-11.76L19.76-11.76Q25.44-11.76 28.16-9.24L28.16-9.24L28.16-9.24Q30.88-6.72 30.88-3.12L30.88-3.12L30.88-3.12Q30.88 0.48 28.68 3.28L28.68 3.28L28.68 3.28Q26.48 6.08 22.96 6.08L22.96 6.08L22.96 6.08Q19.44 6.08 17.36 3.84L17.36 3.84L17.36 3.84Q15.44 1.92 15.20-0.96L15.20-0.96L15.20-0.96Q15.12-1.76 15.20-1.92L15.20-1.92L16.72-1.84L16.72-1.84Q16.64 0.96 18.48 2.80L18.48 2.80L18.48 2.80Q20 4.48 22.92 4.48L22.92 4.48L22.92 4.48Q25.84 4.48 27.60 2.20L27.60 2.20L27.60 2.20Q29.36-0.08 29.36-3.08L29.36-3.08L29.36-3.08Q29.36-6.08 27.28-7.92L27.28-7.92L27.28-7.92Q24.96-10.24 19.84-10.24L19.84-10.24L19.84-10.24Q14.72-10.24 11.36-6.52L11.36-6.52L11.36-6.52Q8-2.80 8 2.44L8 2.44L8 2.44Q8 7.68 12.32 11.36L12.32 11.36L12.32 11.36Q14.88 13.60 17.56 14.56L17.56 14.56L17.56 14.56Q20.24 15.52 24.72 15.52zM38.32-39.52L38.32-39.52L38.32-39.52Q38.32-43.04 40.12-45.36L40.12-45.36L40.12-45.36Q41.92-47.68 45.04-47.68L45.04-47.68L45.04-47.68Q50.40-47.68 50.40-41.80L50.40-41.80L50.40-41.80Q50.40-35.92 44.56-30.72L44.56-30.72L44.56-30.72Q46.32-29.92 48.24-29.92L48.24-29.92L48.24-29.92Q53.20-29.92 56.16-33.16L56.16-33.16L56.16-33.16Q59.12-36.40 59.12-40.76L59.12-40.76L59.12-40.76Q59.12-45.12 55.92-48.16L55.92-48.16L55.92-48.16Q52-51.68 45.60-51.68L45.60-51.68L45.60-51.68Q39.20-51.68 34.72-48.56L34.72-48.56L34.72-48.56Q27.76-43.60 27.76-35.76L27.76-35.76L27.76-35.76Q27.76-29.28 32.08-26.32L32.08-26.32L32.08-26.32Q37.44-27.52 42-30.64L42-30.64L42-30.64Q38.32-33.92 38.32-39.52zM44.96-46.24L44.96-46.24L44.96-46.24Q42.56-46.24 41.24-44.40L41.24-44.40L41.24-44.40Q39.92-42.56 39.92-39.52L39.92-39.52L39.92-39.52Q39.92-34.32 43.20-31.60L43.20-31.60L43.20-31.60Q45.60-33.28 47.20-36.16L47.20-36.16L47.20-36.16Q48.80-39.04 48.80-41.84L48.80-41.84L48.80-41.84Q48.80-46.24 44.96-46.24" fill="#51cacc" stroke="none" stroke-width="none" transform="translate(-323.2999954223633,21.760591987161085)" style="fill: rgb(81, 202, 204);"></path></g><g class="path" style="transform: matrix(1, 0, 0, 1, 0, 0); transform-origin: -247.3px 6.56059px 0px; animation: 1s linear -0.582353s infinite normal forwards running bounce-59601477-9ea8-454d-a34a-3308e9a89ffb;"><path d="M80.80-16.72L80.80-16.72L80.80-16.72Q79.12-18.40 79.12-20.80L79.12-20.80L79.12-20.80Q79.12-23.20 80.80-24.92L80.80-24.92L80.80-24.92Q82.48-26.64 84.88-26.64L84.88-26.64L84.88-26.64Q85.60-26.64 86.72-26.32L86.72-26.32L86.72-26.32Q85.20-29.12 81.04-29.12L81.04-29.12L81.04-29.12Q76.88-29.12 73.68-23.84L73.68-23.84L73.68-23.84Q70.48-18.56 70.48-8.16L70.48-8.16L70.48-8.16Q70.48-4.56 72.12-2.84L72.12-2.84L72.12-2.84Q73.76-1.12 76.24-1.12L76.24-1.12L76.24-1.12Q78.72-1.12 80.76-2.08L80.76-2.08L80.76-2.08Q82.80-3.04 84-4.36L84-4.36L84-4.36Q85.20-5.68 86.08-7.12L86.08-7.12L86.08-7.12Q87.68-9.76 87.68-10.48L87.68-10.48L89.12-9.84L89.12-9.84Q88.88-8.56 87.68-6.44L87.68-6.44L87.68-6.44Q86.48-4.32 85.04-2.96L85.04-2.96L85.04-2.96Q83.60-1.60 80.80-0.44L80.80-0.44L80.80-0.44Q78 0.72 74.56 0.72L74.56 0.72L74.56 0.72Q68.08 0.72 64.76-2.36L64.76-2.36L64.76-2.36Q61.44-5.44 61.44-10.80L61.44-10.80L61.44-10.80Q61.44-20.32 66.20-25.72L66.20-25.72L66.20-25.72Q70.96-31.12 79.12-31.12L79.12-31.12L79.12-31.12Q84.64-31.12 87.60-28.32L87.60-28.32L87.60-28.32Q90.56-25.52 90.56-20.96L90.56-20.96L90.56-20.96Q90.56-18.08 88.84-16.56L88.84-16.56L88.84-16.56Q87.12-15.04 84.80-15.04L84.80-15.04L84.80-15.04Q82.48-15.04 80.80-16.72" fill="#51cacc" stroke="none" stroke-width="none" transform="translate(-323.2999954223633,21.760591987161085)" style="fill: rgb(157, 248, 113);"></path></g><g class="path" style="transform: matrix(1, 0, 0, 1, 0, 0); transform-origin: -212.18px -3.79941px 0px; animation: 1s linear -0.543529s infinite normal forwards running bounce-59601477-9ea8-454d-a34a-3308e9a89ffb;"><path d="M123.92-0.88L123.92-0.88L123.92-0.88Q125.84-0.88 127.92-3.12L127.92-3.12L129.12-2.16L129.12-2.16Q128.56-1.04 126.64-0.16L126.64-0.16L126.64-0.16Q124.72 0.72 122.40 0.72L122.40 0.72L122.40 0.72Q115.12 0.72 115.12-5.84L115.12-5.84L115.12-5.84Q115.12-8.64 116.56-15.84L116.56-15.84L116.56-15.84Q118-23.04 118-25.28L118-25.28L118-25.28Q118-28.72 114.72-28.72L114.72-28.72L114.72-28.72Q112-28.72 109.48-25.04L109.48-25.04L109.48-25.04Q106.96-21.36 105.36-15.04L105.36-15.04L102.72 0L93.12 0L102-50.24L102-50.24Q99.60-50 98-48L98-48L96.80-48.96L96.80-48.96Q99.20-51.84 102.84-51.84L102.84-51.84L102.84-51.84Q106.48-51.84 108.48-50L108.48-50L108.48-50Q110.48-48.16 110.48-44.80L110.48-44.80L110.48-44.80Q110.48-44.16 110.32-42.72L110.32-42.72L106.96-23.76L106.96-23.76Q110.24-31.12 117.12-31.12L117.12-31.12L117.12-31.12Q121.84-31.12 124.48-28.44L124.48-28.44L124.48-28.44Q127.12-25.76 127.12-21.04L127.12-21.04L127.12-21.04Q127.12-18.56 125.60-11.48L125.60-11.48L125.60-11.48Q124.08-4.40 123.92-0.88" fill="#51cacc" stroke="none" stroke-width="none" transform="translate(-323.2999954223633,21.760591987161085)" style="fill: rgb(224, 255, 119);"></path></g><g class="path" style="transform: matrix(1, 0, 0, 1, 0, 0); transform-origin: -174.74px 6.56059px 0px; animation: 1s linear -0.504706s infinite normal forwards running bounce-59601477-9ea8-454d-a34a-3308e9a89ffb;"><path d="M145.44 0.72L145.44 0.72Q139.28 0.72 136.08-2.36L136.08-2.36L136.08-2.36Q132.88-5.44 132.88-10.12L132.88-10.12L132.88-10.12Q132.88-14.80 133.72-18.12L133.72-18.12L133.72-18.12Q134.56-21.44 136.48-24.52L136.48-24.52L136.48-24.52Q138.40-27.60 142.28-29.36L142.28-29.36L142.28-29.36Q146.16-31.12 151.96-31.12L151.96-31.12L151.96-31.12Q157.76-31.12 161-28.04L161-28.04L161-28.04Q164.24-24.96 164.24-19.60L164.24-19.60L164.24-19.60Q164.24-10.48 159.40-4.88L159.40-4.88L159.40-4.88Q154.56 0.72 145.44 0.72L145.44 0.72zM141.92-7.52L141.92-7.52L141.92-7.52Q141.92-1.12 145.64-1.12L145.64-1.12L145.64-1.12Q149.36-1.12 152.28-7.56L152.28-7.56L152.28-7.56Q155.20-14 155.20-22.88L155.20-22.88L155.20-22.88Q155.20-29.60 151.56-29.60L151.56-29.60L151.56-29.60Q147.92-29.60 144.92-23.48L144.92-23.48L144.92-23.48Q141.92-17.36 141.92-7.52" fill="#51cacc" stroke="none" stroke-width="none" transform="translate(-323.2999954223633,21.760591987161085)" style="fill: rgb(222, 157, 214);"></path></g><g class="path" style="transform: matrix(1, 0, 0, 1, 0, 0); transform-origin: -139.46px 6.56059px 0px; animation: 1s linear -0.465882s infinite normal forwards running bounce-59601477-9ea8-454d-a34a-3308e9a89ffb;"><path d="M180.72 0.72L180.72 0.72Q174.56 0.72 171.36-2.36L171.36-2.36L171.36-2.36Q168.16-5.44 168.16-10.12L168.16-10.12L168.16-10.12Q168.16-14.80 169-18.12L169-18.12L169-18.12Q169.84-21.44 171.76-24.52L171.76-24.52L171.76-24.52Q173.68-27.60 177.56-29.36L177.56-29.36L177.56-29.36Q181.44-31.12 187.24-31.12L187.24-31.12L187.24-31.12Q193.04-31.12 196.28-28.04L196.28-28.04L196.28-28.04Q199.52-24.96 199.52-19.60L199.52-19.60L199.52-19.60Q199.52-10.48 194.68-4.88L194.68-4.88L194.68-4.88Q189.84 0.72 180.72 0.72L180.72 0.72zM177.20-7.52L177.20-7.52L177.20-7.52Q177.20-1.12 180.92-1.12L180.92-1.12L180.92-1.12Q184.64-1.12 187.56-7.56L187.56-7.56L187.56-7.56Q190.48-14 190.48-22.88L190.48-22.88L190.48-22.88Q190.48-29.60 186.84-29.60L186.84-29.60L186.84-29.60Q183.20-29.60 180.20-23.48L180.20-23.48L180.20-23.48Q177.20-17.36 177.20-7.52" fill="#51cacc" stroke="none" stroke-width="none" transform="translate(-323.2999954223633,21.760591987161085)" style="fill: rgb(255, 112, 142);"></path></g><g class="path" style="transform: matrix(1, 0, 0, 1, 0, 0); transform-origin: -108.3px -3.79941px 0px; animation: 1s linear -0.427059s infinite normal forwards running bounce-59601477-9ea8-454d-a34a-3308e9a89ffb;"><path d="M218.08-2.88L218.08-2.88L218.08-2.88Q217.04-1.52 215.24-0.40L215.24-0.40L215.24-0.40Q213.44 0.72 210.56 0.72L210.56 0.72L210.56 0.72Q207.68 0.72 205.68-1.12L205.68-1.12L205.68-1.12Q203.68-2.96 203.68-6.32L203.68-6.32L203.68-6.32Q203.68-6.96 203.84-8.40L203.84-8.40L209.04-37.20L209.04-37.20Q210.48-45.12 213-48.48L213-48.48L213-48.48Q215.52-51.84 219.68-51.84L219.68-51.84L219.68-51.84Q222.56-51.84 224.44-49.68L224.44-49.68L224.44-49.68Q226.32-47.52 226.32-43.12L226.32-43.12L226.32-43.12Q226.32-38.72 222.92-30.56L222.92-30.56L222.92-30.56Q219.52-22.40 219.52-18.64L219.52-18.64L218.08-18.64L218.08-18.64Q218.08-22.88 221.44-30.76L221.44-30.76L221.44-30.76Q224.80-38.64 224.80-43.36L224.80-43.36L224.80-43.36Q224.80-46.24 223.48-48.32L223.48-48.32L223.48-48.32Q222.16-50.40 220.24-50.40L220.24-50.40L220.24-50.40Q220.16-48.32 217.48-31.72L217.48-31.72L217.48-31.72Q214.80-15.12 212.16-0.88L212.16-0.88L212.16-0.88Q214.40-0.88 216.32-3.20L216.32-3.20L216.32-3.20Q218.24-5.52 219.04-7.84L219.04-7.84L219.92-10.24L221.36-9.60L221.36-9.60Q221.12-8.48 220.12-6.36L220.12-6.36L220.12-6.36Q219.12-4.24 218.08-2.88" fill="#51cacc" stroke="none" stroke-width="none" transform="translate(-323.2999954223633,21.760591987161085)" style="fill: rgb(81, 202, 204);"></path></g><g class="path" style="transform: matrix(1, 0, 0, 1, 0, 0); transform-origin: -59.18px -0.399408px 0px; animation: 1s linear -0.388235s infinite normal forwards running bounce-59601477-9ea8-454d-a34a-3308e9a89ffb;"><path d="M259.84-24.48L259.84-24.48L259.84-24.48Q264-25.84 269.52-25.84L269.52-25.84L269.52-25.84Q275.04-25.84 275.04-22.64L275.04-22.64L275.04-22.64Q275.04-20.72 272.96-19.48L272.96-19.48L272.96-19.48Q270.88-18.24 266.96-18.24L266.96-18.24L266.96-18.24Q260.80-18.24 257.04-21.20L257.04-21.20L257.04-21.20Q255.60-19.68 254.80-18.64L254.80-18.64L254.80-18.64Q254-17.60 253-14.64L253-14.64L253-14.64Q252-11.68 252-7.52L252-7.52L252-7.52Q252-3.36 255.52-0.28L255.52-0.28L255.52-0.28Q259.04 2.80 262.84 2.80L262.84 2.80L262.84 2.80Q266.64 2.80 269.92 1.36L269.92 1.36L269.92 1.36Q273.20-0.08 275.12-2L275.12-2L275.12-2Q277.04-3.92 278.48-6.24L278.48-6.24L278.48-6.24Q280.48-9.20 281.12-11.44L281.12-11.44L282.72-11.04L282.72-11.04Q282.72-10.80 282.12-9.36L282.12-9.36L282.12-9.36Q281.52-7.92 279.92-5.56L279.92-5.56L279.92-5.56Q278.32-3.20 276.08-1L276.08-1L276.08-1Q273.84 1.20 269.92 2.80L269.92 2.80L269.92 2.80Q266 4.40 261.36 4.40L261.36 4.40L261.36 4.40Q252.80 4.40 248 0.76L248 0.76L248 0.76Q243.20-2.88 243.20-8.72L243.20-8.72L243.20-8.72Q243.20-14.56 246.84-18L246.84-18L246.84-18Q250.48-21.44 255.44-22.80L255.44-22.80L255.44-22.80Q251.84-27.20 251.84-33.24L251.84-33.24L251.84-33.24Q251.84-39.28 256.68-44L256.68-44L256.68-44Q261.52-48.72 270.64-48.72L270.64-48.72L270.64-48.72Q277.60-48.72 281.32-46.28L281.32-46.28L281.32-46.28Q285.04-43.84 285.04-40.20L285.04-40.20L285.04-40.20Q285.04-36.56 283.16-32.76L283.16-32.76L283.16-32.76Q281.28-28.96 281.04-26.72L281.04-26.72L279.36-26.72L279.36-26.72Q279.60-29.12 281.48-32.88L281.48-32.88L281.48-32.88Q283.36-36.64 283.36-39.88L283.36-39.88L283.36-39.88Q283.36-43.12 279.96-45.20L279.96-45.20L279.96-45.20Q276.56-47.28 271.32-47.28L271.32-47.28L271.32-47.28Q266.08-47.28 262.40-43.24L262.40-43.24L262.40-43.24Q258.72-39.20 258.72-30.88L258.72-30.88L258.72-30.88Q258.72-26.40 259.84-24.48zM261.04-22.16L261.04-22.16L261.04-22.16Q261.44-21.60 263.08-20.64L263.08-20.64L263.08-20.64Q264.72-19.68 267.44-19.68L267.44-19.68L267.44-19.68Q270.16-19.68 271.80-20.52L271.80-20.52L271.80-20.52Q273.44-21.36 273.44-22.48L273.44-22.48L273.44-22.48Q273.44-24.40 269.12-24.40L269.12-24.40L269.12-24.40Q264.80-24.40 260.48-23.12L260.48-23.12L260.48-23.12Q260.64-22.72 261.04-22.16" fill="#51cacc" stroke="none" stroke-width="none" transform="translate(-323.2999954223633,21.760591987161085)" style="fill: rgb(157, 248, 113);"></path></g><g class="path" style="transform: matrix(1, 0, 0, 1, 0, 0); transform-origin: -19.98px 6.56059px 0px; animation: 1s linear -0.349412s infinite normal forwards running bounce-59601477-9ea8-454d-a34a-3308e9a89ffb;"><path d="M308.72-21.20L308.72-21.20L308.72-21.20Q307.04-22.88 307.04-25.28L307.04-25.28L307.04-25.28Q307.04-27.68 308.72-29.40L308.72-29.40L308.72-29.40Q310.40-31.12 312.52-31.12L312.52-31.12L312.52-31.12Q314.64-31.12 316.12-30.04L316.12-30.04L316.12-30.04Q317.60-28.96 318.24-27.28L318.24-27.28L318.24-27.28Q318.32-27.20 318.32-27.12L318.32-27.12L318.32-27.04L318.32-27.04Q319.28-24.96 319.28-21L319.28-21L319.28-21Q319.28-17.04 318.36-13.76L318.36-13.76L318.36-13.76Q317.44-10.48 315.56-7.08L315.56-7.08L315.56-7.08Q313.68-3.68 310.08-1.48L310.08-1.48L310.08-1.48Q306.48 0.72 301.60 0.72L301.60 0.72L301.60 0.72Q296.72 0.72 293.48-2.48L293.48-2.48L293.48-2.48Q290.24-5.68 290.24-9.84L290.24-9.84L290.24-9.84Q290.24-14 291.72-20.12L291.72-20.12L291.72-20.12Q293.20-26.24 293.36-29.52L293.36-29.52L293.36-29.52Q292.08-29.44 290.88-28.60L290.88-28.60L290.88-28.60Q289.68-27.76 289.12-26.96L289.12-26.96L288.56-26.16L287.36-27.12L287.36-27.12Q287.60-27.60 288.08-28.24L288.08-28.24L288.08-28.24Q288.56-28.88 290.52-30L290.52-30L290.52-30Q292.48-31.12 295.44-31.12L295.44-31.12L295.44-31.12Q298.40-31.12 300.20-29.20L300.20-29.20L300.20-29.20Q302-27.28 302-24.32L302-24.32L302-24.32Q302-21.36 300.40-15.16L300.40-15.16L300.40-15.16Q298.80-8.96 298.80-6.44L298.80-6.44L298.80-6.44Q298.80-3.92 299.96-2.48L299.96-2.48L299.96-2.48Q301.12-1.04 303.28-1.04L303.28-1.04L303.28-1.04Q308.64-1.04 313.04-6.88L313.04-6.88L313.04-6.88Q317.44-12.72 317.44-19.92L317.44-19.92L317.44-19.92Q317.44-20.48 317.28-21.60L317.28-21.60L317.28-21.60Q315.60-19.52 313-19.52L313-19.52L313-19.52Q310.40-19.52 308.72-21.20" fill="#51cacc" stroke="none" stroke-width="none" transform="translate(-323.2999954223633,21.760591987161085)" style="fill: rgb(224, 255, 119);"></path></g><g class="path" style="transform: matrix(1, 0, 0, 1, 0, 0); transform-origin: 13.5px 6.56059px 0px; animation: 1s linear -0.310588s infinite normal forwards running bounce-59601477-9ea8-454d-a34a-3308e9a89ffb;"><path d="M340.32-31.12L340.32-31.12L340.32-31.12Q350.48-31.12 350.48-23.04L350.48-23.04L350.48-23.04Q350.48-18 345.72-15.40L345.72-15.40L345.72-15.40Q340.96-12.80 332.16-12.72L332.16-12.72L332.16-12.72Q332.00-9.84 332.00-8.16L332.00-8.16L332.00-8.16Q332.00-4.56 333.64-2.84L333.64-2.84L333.64-2.84Q335.28-1.12 337.76-1.12L337.76-1.12L337.76-1.12Q340.24-1.12 342.28-2.08L342.28-2.08L342.28-2.08Q344.32-3.04 345.52-4.36L345.52-4.36L345.52-4.36Q346.72-5.68 347.60-7.12L347.60-7.12L347.60-7.12Q349.20-9.76 349.20-10.48L349.20-10.48L350.64-9.84L350.64-9.84Q350.40-8.56 349.20-6.44L349.20-6.44L349.20-6.44Q348.00-4.32 346.56-2.96L346.56-2.96L346.56-2.96Q345.12-1.60 342.32-0.44L342.32-0.44L342.32-0.44Q339.52 0.72 336.08 0.72L336.08 0.72L336.08 0.72Q329.60 0.72 326.28-2.36L326.28-2.36L326.28-2.36Q322.96-5.44 322.96-10.80L322.96-10.80L322.96-10.80Q322.96-20.32 327.68-25.72L327.68-25.72L327.68-25.72Q332.40-31.12 340.32-31.12zM348.48-23.04L348.48-23.04Q348.48-25.68 346.92-27.40L346.92-27.40L346.92-27.40Q345.36-29.12 342.28-29.12L342.28-29.12L342.28-29.12Q339.20-29.12 336.28-25.44L336.28-25.44L336.28-25.44Q333.36-21.76 332.40-14.56L332.40-14.56L332.40-14.56Q348.48-14.64 348.48-23.04L348.48-23.04" fill="#51cacc" stroke="none" stroke-width="none" transform="translate(-323.2999954223633,21.760591987161085)" style="fill: rgb(222, 157, 214);"></path></g><g class="path" style="transform: matrix(1, 0, 0, 1, 0, 0); transform-origin: 46.54px 6.20059px 0px; animation: 1s linear -0.271765s infinite normal forwards running bounce-59601477-9ea8-454d-a34a-3308e9a89ffb;"><path d="M356.48-27.28L355.28-28.24L355.28-28.24Q357.68-31.12 361.32-31.12L361.32-31.12L361.32-31.12Q364.96-31.12 366.96-29.28L366.96-29.28L366.96-29.28Q368.96-27.44 368.96-24.08L368.96-24.08L368.96-23.60L368.96-23.60Q372.56-31.12 378.32-31.12L378.32-31.12L378.32-31.12Q384.48-31.12 384.48-24.72L384.48-24.72L384.48-24.72Q384.48-22.08 382.72-19.12L382.72-19.12L382.72-19.12Q380.96-16.16 379.20-13.48L379.20-13.48L379.20-13.48Q377.44-10.80 377.44-8.72L377.44-8.72L375.52-8.72L375.52-8.72Q375.52-11.68 378.96-16.72L378.96-16.72L378.96-16.72Q382.40-21.76 382.40-24.52L382.40-24.52L382.40-24.52Q382.40-27.28 381.32-28.28L381.32-28.28L381.32-28.28Q380.24-29.28 378.12-29.28L378.12-29.28L378.12-29.28Q376.00-29.28 373.96-27.44L373.96-27.44L373.96-27.44Q371.92-25.60 370.56-22.80L370.56-22.80L370.56-22.80Q368.40-18.64 367.68-16L367.68-16L367.68-15.92L364.80 0L355.20 0L360.48-29.52L360.48-29.52Q358.08-29.28 356.48-27.28L356.48-27.28" fill="#51cacc" stroke="none" stroke-width="none" transform="translate(-323.2999954223633,21.760591987161085)" style="fill: rgb(255, 112, 142);"></path></g><g class="path" style="transform: matrix(1, 0, 0, 1, 0, 0); transform-origin: 80.46px 13.5606px 0px; animation: 1s linear -0.232941s infinite normal forwards running bounce-59601477-9ea8-454d-a34a-3308e9a89ffb;"><path d="M391.12-29.52L391.12-29.52L391.12-29.52Q389.20-29.52 387.12-27.28L387.12-27.28L385.92-28.24L385.92-28.24Q386.48-29.36 388.40-30.24L388.40-30.24L388.40-30.24Q390.32-31.12 392.64-31.12L392.64-31.12L392.64-31.12Q399.92-31.12 399.92-24.56L399.92-24.56L399.92-24.56Q399.92-21.76 398.40-15.40L398.40-15.40L398.40-15.40Q396.88-9.04 396.88-6.80L396.88-6.80L396.88-6.80Q396.88-2.96 400.08-2.96L400.08-2.96L400.08-2.96Q402.72-2.96 405.24-6.56L405.24-6.56L405.24-6.56Q407.76-10.16 409.36-16.24L409.36-16.24L412.00-30.40L412.00-30.40Q417.92-30.40 420.64-30.88L420.64-30.88L421.68-31.12L416.64-2.80L416.64-2.80Q415.20 5.44 409.96 10.08L409.96 10.08L409.96 10.08Q404.72 14.72 396.40 14.72L396.40 14.72L396.40 14.72Q391.36 14.72 388.60 13L388.60 13L388.60 13Q385.84 11.28 385.84 8.52L385.84 8.52L385.84 8.52Q385.84 5.76 387.52 4.12L387.52 4.12L387.52 4.12Q389.20 2.48 392.28 2.48L392.28 2.48L392.28 2.48Q395.36 2.48 398.00 3.48L398.00 3.48L398.00 3.48Q400.64 4.48 401.84 4.64L401.84 4.64L401.68 6.08L401.68 6.08Q400.32 5.92 397.76 4.96L397.76 4.96L397.76 4.96Q395.20 4 392.68 4L392.68 4L392.68 4Q390.16 4 388.84 5.12L388.84 5.12L388.84 5.12Q387.52 6.24 387.52 8.36L387.52 8.36L387.52 8.36Q387.52 10.48 389.84 11.80L389.84 11.80L389.84 11.80Q392.16 13.12 395.60 13.12L395.60 13.12L395.60 13.12Q403.92 13.12 405.84 3.12L405.84 3.12L407.84-7.92L407.84-7.92Q404.48-0.56 397.68-0.56L397.68-0.56L397.68-0.56Q393.04-0.56 390.52-3.20L390.52-3.20L390.52-3.20Q388.00-5.84 388.00-10.64L388.00-10.64L388.00-10.64Q388.00-13.12 389.48-19.56L389.48-19.56L389.48-19.56Q390.96-26 391.12-29.52" fill="#51cacc" stroke="none" stroke-width="none" transform="translate(-323.2999954223633,21.760591987161085)" style="fill: rgb(81, 202, 204);"></path></g><g class="path" style="transform: matrix(1, 0, 0, 1, 0, 0); transform-origin: 158.14px 1.68059px 0px; animation: 1s linear -0.194118s infinite normal forwards running bounce-59601477-9ea8-454d-a34a-3308e9a89ffb;"><path d="M454.28-14.56L454.28-14.56L454.28-14.56Q452.08-16.24 450.40-19.68L450.40-19.68L450.40-19.68Q448.72-23.12 448.72-27.44L448.72-27.44L448.72-27.44Q448.72-31.76 450.08-35.44L450.08-35.44L450.08-35.44Q451.44-39.12 454.12-42.12L454.12-42.12L454.12-42.12Q456.80-45.12 461.28-46.92L461.28-46.92L461.28-46.92Q465.76-48.72 470.80-48.72L470.80-48.72L470.80-48.72Q475.84-48.72 479.92-47.96L479.92-47.96L479.92-47.96Q484.00-47.20 486.32-46.36L486.32-46.36L486.32-46.36Q488.64-45.52 490.44-44.76L490.44-44.76L490.44-44.76Q492.24-44 493.36-43.56L493.36-43.56L493.36-43.56Q494.48-43.12 494.72-43.04L494.72-43.04L494.72-43.04Q494.96-42.96 496.00-42.56L496.00-42.56L496.00-42.56Q497.04-42.16 497.40-42.08L497.40-42.08L497.40-42.08Q497.76-42 498.68-41.68L498.68-41.68L498.68-41.68Q499.60-41.36 500.12-41.28L500.12-41.28L500.12-41.28Q500.64-41.20 501.52-41L501.52-41L501.52-41Q502.40-40.80 503.04-40.76L503.04-40.76L503.04-40.76Q503.68-40.72 504.56-40.64L504.56-40.64L504.56-40.64Q505.44-40.56 506.24-40.56L506.24-40.56L506.24-40.56Q510.16-40.56 513.08-41.88L513.08-41.88L513.08-41.88Q516-43.20 517.32-44.80L517.32-44.80L517.32-44.80Q518.64-46.40 519.44-48.48L519.44-48.48L519.44-48.48Q520.40-51.04 520.40-53.12L520.40-53.12L522.16-53.12L522.16-53.12Q522.16-51.20 521.16-48.44L521.16-48.44L521.16-48.44Q520.16-45.68 518.68-43.80L518.68-43.80L518.68-43.80Q517.20-41.92 513.92-40.40L513.92-40.40L513.92-40.40Q510.64-38.88 506.12-38.88L506.12-38.88L506.12-38.88Q501.60-38.88 497.04-40.32L497.04-40.32L497.04-40.32Q491.60-32.64 485.60-9.36L485.60-9.36L485.60-9.36Q482.64 2.32 477.08 7.64L477.08 7.64L477.08 7.64Q471.52 12.96 461.00 12.96L461.00 12.96L461.00 12.96Q450.48 12.96 445.28 6.56L445.28 6.56L445.28 6.56Q440.72 0.88 440.72-6.64L440.72-6.64L440.72-6.64Q440.72-7.60 440.80-8.56L440.80-8.56L442.64-8.56L442.64-7.44L442.64-7.44Q442.64-1.92 445.60 3.36L445.60 3.36L445.60 3.36Q446.88 5.60 448.68 7.24L448.68 7.24L448.68 7.24Q450.48 8.88 453.52 10L453.52 10L453.52 10Q456.56 11.12 460.32 11.12L460.32 11.12L460.32 11.12Q466.56 11.12 470.20 6.08L470.20 6.08L470.20 6.08Q473.84 1.04 477.24-13.40L477.24-13.40L477.24-13.40Q480.64-27.84 484.20-34.04L484.20-34.04L484.20-34.04Q487.76-40.24 494.56-41.20L494.56-41.20L494.56-41.20Q492.48-42 490.16-43L490.16-43L490.16-43Q487.84-44 485.72-44.76L485.72-44.76L485.72-44.76Q483.60-45.52 479.64-46.28L479.64-46.28L479.64-46.28Q475.68-47.04 470.80-47.04L470.80-47.04L470.80-47.04Q465.92-47.04 461.72-45.28L461.72-45.28L461.72-45.28Q457.52-43.52 455.20-40.64L455.20-40.64L455.20-40.64Q450.56-35.04 450.56-27.68L450.56-27.68L450.56-27.68Q450.56-23.52 452.08-20.36L452.08-20.36L452.08-20.36Q453.60-17.20 455.76-15.68L455.76-15.68L455.76-15.68Q460.16-12.72 463.76-12.32L463.76-12.32L465.28-12.16L464.80-10.40L464.80-10.40Q462.80-10.40 459.64-11.64L459.64-11.64L459.64-11.64Q456.48-12.88 454.28-14.56" fill="#51cacc" stroke="none" stroke-width="none" transform="translate(-323.2999954223633,21.760591987161085)" style="fill: rgb(157, 248, 113);"></path></g><g class="path" style="transform: matrix(1, 0, 0, 1, 0, 0); transform-origin: 214.62px -3.79941px 0px; animation: 1s linear -0.155294s infinite normal forwards running bounce-59601477-9ea8-454d-a34a-3308e9a89ffb;"><path d="M550.72-0.88L550.72-0.88L550.72-0.88Q552.64-0.88 554.72-3.12L554.72-3.12L555.92-2.16L555.92-2.16Q555.36-1.04 553.44-0.16L553.44-0.16L553.44-0.16Q551.52 0.72 549.20 0.72L549.20 0.72L549.20 0.72Q541.92 0.72 541.92-5.84L541.92-5.84L541.92-5.84Q541.92-8.64 543.36-15.84L543.36-15.84L543.36-15.84Q544.80-23.04 544.80-25.28L544.80-25.28L544.80-25.28Q544.80-28.72 541.52-28.72L541.52-28.72L541.52-28.72Q538.80-28.72 536.28-25.04L536.28-25.04L536.28-25.04Q533.76-21.36 532.16-15.04L532.16-15.04L529.52 0L519.92 0L528.80-50.24L528.80-50.24Q526.40-50 524.80-48L524.80-48L523.60-48.96L523.60-48.96Q526-51.84 529.64-51.84L529.64-51.84L529.64-51.84Q533.28-51.84 535.28-50L535.28-50L535.28-50Q537.28-48.16 537.28-44.80L537.28-44.80L537.28-44.80Q537.28-44.16 537.12-42.72L537.12-42.72L533.76-23.76L533.76-23.76Q537.04-31.12 543.92-31.12L543.92-31.12L543.92-31.12Q548.64-31.12 551.28-28.44L551.28-28.44L551.28-28.44Q553.92-25.76 553.92-21.04L553.92-21.04L553.92-21.04Q553.92-18.56 552.40-11.48L552.40-11.48L552.40-11.48Q550.88-4.40 550.72-0.88" fill="#51cacc" stroke="none" stroke-width="none" transform="translate(-323.2999954223633,21.760591987161085)" style="fill: rgb(224, 255, 119);"></path></g><g class="path" style="transform: matrix(1, 0, 0, 1, 0, 0); transform-origin: 244.5px 6.56059px 0px; animation: 1s linear -0.116471s infinite normal forwards running bounce-59601477-9ea8-454d-a34a-3308e9a89ffb;"><path d="M574.48-2.16L574.48-2.16Q572.08 0.72 568.48 0.72L568.48 0.72L568.48 0.72Q564.88 0.72 562.84-1.12L562.84-1.12L562.84-1.12Q560.80-2.96 560.80-5.92L560.80-5.92L560.80-5.92Q560.80-6.96 562.08-14.64L562.08-14.64L564.72-28.96L561.36-28.96L561.52-30.40L564.96-30.40L564.96-30.40Q570.88-30.40 573.68-30.88L573.68-30.88L574.80-31.12L569.28-0.88L569.28-0.88Q571.68-1.12 573.28-3.12L573.28-3.12L574.48-2.16" fill="#51cacc" stroke="none" stroke-width="none" transform="translate(-323.2999954223633,21.760591987161085)" style="fill: rgb(222, 157, 214);"></path></g><g class="path" style="transform: matrix(1, 0, 0, 1, 0, 0); transform-origin: 248.26px -21.1594px 0px; animation: 1s linear -0.0776471s infinite normal forwards running bounce-59601477-9ea8-454d-a34a-3308e9a89ffb;"><path d="M567.44-38.80L567.44-38.80L567.44-38.80Q565.76-40.48 565.76-42.88L565.76-42.88L565.76-42.88Q565.76-45.28 567.44-47L567.44-47L567.44-47Q569.12-48.72 571.52-48.72L571.52-48.72L571.52-48.72Q573.92-48.72 575.64-47L575.64-47L575.64-47Q577.36-45.28 577.36-42.88L577.36-42.88L577.36-42.88Q577.36-40.48 575.64-38.80L575.64-38.80L575.64-38.80Q573.92-37.12 571.52-37.12L571.52-37.12L571.52-37.12Q569.12-37.12 567.44-38.80" fill="#51cacc" stroke="none" stroke-width="none" transform="translate(-323.2999954223633,21.760591987161085)" style="fill: rgb(255, 112, 142);"></path></g><g class="path" style="transform: matrix(1, 0, 0, 1, 0, 0); transform-origin: 273.94px 6.56059px 0px; animation: 1s linear -0.0388235s infinite normal forwards running bounce-59601477-9ea8-454d-a34a-3308e9a89ffb;"><path d="M610-0.88L610-0.88L610-0.88Q611.92-0.88 614-3.12L614-3.12L615.20-2.16L615.20-2.16Q614.64-1.04 612.72-0.16L612.72-0.16L612.72-0.16Q610.80 0.72 608.48 0.72L608.48 0.72L608.48 0.72Q601.20 0.72 601.20-5.84L601.20-5.84L601.20-5.84Q601.20-8.64 602.64-15.84L602.64-15.84L602.64-15.84Q604.08-23.04 604.08-25.28L604.08-25.28L604.08-25.28Q604.08-28.72 600.80-28.72L600.80-28.72L600.80-28.72Q598.16-28.72 595.72-25.28L595.72-25.28L595.72-25.28Q593.28-21.84 591.68-15.84L591.68-15.84L588.96-0.88L588.96-0.88Q591.44-1.12 593.04-3.12L593.04-3.12L594.24-2.16L594.24-2.16Q591.84 0.72 588.24 0.72L588.24 0.72L588.24 0.72Q584.64 0.72 582.60-1.12L582.60-1.12L582.60-1.12Q580.56-2.96 580.56-5.92L580.56-5.92L580.56-5.92Q580.56-7.04 581.84-14.72L581.84-14.72L584.48-29.52L584.48-29.52Q582.08-29.28 580.48-27.28L580.48-27.28L579.28-28.24L579.28-28.24Q581.68-31.12 585.32-31.12L585.32-31.12L585.32-31.12Q588.96-31.12 590.96-29.28L590.96-29.28L590.96-29.28Q592.96-27.44 592.96-24.08L592.96-24.08L592.96-23.60L592.96-23.60Q596.24-31.12 603.20-31.12L603.20-31.12L603.20-31.12Q607.92-31.12 610.56-28.44L610.56-28.44L610.56-28.44Q613.20-25.76 613.20-21.04L613.20-21.04L613.20-21.04Q613.20-18.56 611.68-11.48L611.68-11.48L611.68-11.48Q610.16-4.40 610-0.88" fill="#51cacc" stroke="none" stroke-width="none" transform="translate(-323.2999954223633,21.760591987161085)" style="fill: rgb(81, 202, 204);"></path></g><g class="path" style="transform: matrix(1, 0, 0, 1, 0, 0); transform-origin: 311.82px 13.5606px 0px; animation: 1s linear 0s infinite normal forwards running bounce-59601477-9ea8-454d-a34a-3308e9a89ffb;"><path d="M645.28 8.72L645.28 8.72L645.28 8.72Q648.16 8.72 650.24 6.48L650.24 6.48L651.36 7.44L651.36 7.44Q649.44 10.16 645.28 10.16L645.28 10.16L645.28 10.16Q643.52 10.16 641.68 9.76L641.68 9.76L641.68 9.76Q636.24 14.72 627.76 14.72L627.76 14.72L627.76 14.72Q622.72 14.72 619.96 13L619.96 13L619.96 13Q617.20 11.28 617.20 8.52L617.20 8.52L617.20 8.52Q617.20 5.76 618.92 4.12L618.92 4.12L618.92 4.12Q620.64 2.48 625.04 2.48L625.04 2.48L625.04 2.48Q629.44 2.48 636.64 6.08L636.64 6.08L639.12-7.20L639.12-7.20Q635.52-0.56 629.84-0.56L629.84-0.56L629.84-0.56Q618.96-0.56 618.96-11.28L618.96-11.28L618.96-11.28Q618.96-20.24 623.48-25.68L623.48-25.68L623.48-25.68Q628-31.12 635.04-31.12L635.04-31.12L635.04-31.12Q639.12-31.12 641.36-28.64L641.36-28.64L641.36-28.64Q642-27.92 642.64-26.48L642.64-26.48L643.36-30.40L643.36-30.40Q649.28-30.40 652-30.88L652-30.88L653.04-31.12L647.76-1.60L647.76-1.60Q646.56 4.64 642.96 8.48L642.96 8.48L642.96 8.48Q644 8.72 645.28 8.72zM628-8.80L628-8.80Q628-5.12 628.72-3.88L628.72-3.88L628.72-3.88Q629.44-2.64 631.44-2.64L631.44-2.64L631.44-2.64Q633.44-2.64 635.52-4.80L635.52-4.80L635.52-4.80Q637.60-6.96 638.52-8.84L638.52-8.84L638.52-8.84Q639.44-10.72 640.08-12.48L640.08-12.48L641.76-21.68L641.76-22.24L641.76-22.24Q641.76-29.60 635.04-29.60L635.04-29.60L635.04-29.60Q632.48-29.60 630.24-22.64L630.24-22.64L630.24-22.64Q628-15.68 628-8.80L628-8.80zM627.44 13.12L627.44 13.12L627.44 13.12Q633.84 13.12 636.08 7.60L636.08 7.60L634.96 7.04L634.96 7.04Q634 6.56 633.80 6.44L633.80 6.44L633.80 6.44Q633.60 6.32 632.72 5.92L632.72 5.92L632.72 5.92Q631.84 5.52 631.44 5.40L631.44 5.40L631.44 5.40Q631.04 5.28 630.20 4.96L630.20 4.96L630.20 4.96Q629.36 4.64 628.80 4.52L628.80 4.52L628.80 4.52Q628.24 4.40 627.52 4.24L627.52 4.24L627.52 4.24Q626.32 4 624 4L624 4L624 4Q621.68 4 620.28 5.12L620.28 5.12L620.28 5.12Q618.88 6.24 618.88 8.40L618.88 8.40L618.88 8.40Q618.88 10.56 621.20 11.84L621.20 11.84L621.20 11.84Q623.52 13.12 627.44 13.12" fill="#51cacc" stroke="none" stroke-width="none" transform="translate(-323.2999954223633,21.760591987161085)" style="fill: rgb(157, 248, 113);"></path></g></g>
</g>
</g>
<style id="bounce-59601477-9ea8-454d-a34a-3308e9a89ffb" data-anikit="">@keyframes bounce-59601477-9ea8-454d-a34a-3308e9a89ffb
{
  0% {
    animation-timing-function: cubic-bezier(0.1361,0.2514,0.2175,0.8786);
    transform: translate(0,0px) scaleY(1);
  }
  37% {
    animation-timing-function: cubic-bezier(0.7674,0.1844,0.8382,0.7157);
    transform: translate(0,-39.96px) scaleY(1);
  }
  72% {
    animation-timing-function: cubic-bezier(0.1118,0.2149,0.2172,0.941);
    transform: translate(0,0px) scaleY(1);
  }
  87% {
    animation-timing-function: cubic-bezier(0.7494,0.2259,0.8209,0.6963);
    transform: translate(0,19.900000000000002px) scaleY(0.602);
  }
  100% {
    transform: translate(0,0px) scaleY(1);
  }
}</style></svg>