<svg xmlns="http://www.w3.org/2000/svg" style="margin:auto;background:rgba(NaN, NaN, NaN, 0);display:block;" width="712" height="155" preserveAspectRatio="xMidYMid">
<style type="text/css">
  text {
    text-anchor: middle; font-size: 80px; opacity: 0;
  }
</style>
<g style="transform-origin:356px 77.5px;transform:scale(1)">
<g transform="translate(356,77.5)">
  <g transform="translate(0,0)"><g class="path" style="transform: matrix(1, 0, 0, 1, 0, 0); transform-origin: -277.777px -4.13151px 0px; animation: 1s linear -0.621177s infinite normal forwards running bounce-29fc35d6-17eb-4d3a-a6b4-f17e5fc834df;"><path d="M1.04-7.28L7.28-15.92L7.28-15.92Q14.08-9.12 20.88-9.12L20.88-9.12L20.88-9.12Q24.40-9.12 26.52-10.76L26.52-10.76L26.52-10.76Q28.64-12.40 28.64-15L28.64-15L28.64-15Q28.64-17.60 26.08-19.40L26.08-19.40L26.08-19.40Q23.52-21.20 19.88-22.56L19.88-22.56L19.88-22.56Q16.24-23.92 12.64-25.64L12.64-25.64L12.64-25.64Q9.04-27.36 6.48-30.56L6.48-30.56L6.48-30.56Q3.92-33.76 3.92-38.32L3.92-38.32L3.92-38.32Q3.92-45.52 9.92-50.76L9.92-50.76L9.92-50.76Q15.92-56 24.16-56L24.16-56L24.16-56Q27.92-56 31.44-55.20L31.44-55.20L31.44-55.20Q34.96-54.40 38.24-52.88L38.24-52.88L32.80-41.20L32.80-41.20Q30.56-42.96 26.68-44.44L26.68-44.44L26.68-44.44Q22.80-45.92 19.88-45.92L19.88-45.92L19.88-45.92Q16.96-45.92 15.16-44.52L15.16-44.52L15.16-44.52Q13.36-43.12 13.36-40.80L13.36-40.80L13.36-40.80Q13.36-38.48 15.92-36.68L15.92-36.68L15.92-36.68Q18.48-34.88 22.12-33.52L22.12-33.52L22.12-33.52Q25.76-32.16 29.40-30.52L29.40-30.52L29.40-30.52Q33.04-28.88 35.60-25.68L35.60-25.68L35.60-25.68Q38.16-22.48 38.16-17.92L38.16-17.92L38.16-17.92Q38.16-10.40 32.16-4.76L32.16-4.76L32.16-4.76Q26.16 0.88 18.16 0.88L18.16 0.88L18.16 0.88Q12.16 0.88 7.52-2L7.52-2L7.52-2Q3.44-4.48 1.76-6.40L1.76-6.40L1.04-7.28" fill="#51cacc" stroke="none" stroke-width="none" transform="translate(-297.4166488647461,23.428493311264933)" style="fill: rgb(81, 202, 204);"></path></g><g class="path" style="transform: matrix(1, 0, 0, 1, 0, 0); transform-origin: -240.937px 3.26849px 0px; animation: 1s linear -0.582353s infinite normal forwards running bounce-29fc35d6-17eb-4d3a-a6b4-f17e5fc834df;"><path d="M58.64-30.80L58.64-30.80L58.64-30.80Q55.12-30.80 53.20-28.28L53.20-28.28L53.20-28.28Q51.28-25.76 51.28-20.56L51.28-20.56L51.28-20.56Q51.28-15.36 53.24-12.20L53.24-12.20L53.24-12.20Q55.20-9.04 58.96-9.04L58.96-9.04L58.96-9.04Q60.88-9.04 62.72-10.24L62.72-10.24L62.72-10.24Q64.56-11.44 65.52-12.64L65.52-12.64L66.40-13.92L70.40-9.76L70.40-9.76Q70.16-9.36 69.80-8.64L69.80-8.64L69.80-8.64Q69.44-7.92 68.04-6.08L68.04-6.08L68.04-6.08Q66.64-4.24 65.08-2.84L65.08-2.84L65.08-2.84Q63.52-1.44 61.04-0.28L61.04-0.28L61.04-0.28Q58.56 0.88 55.84 0.88L55.84 0.88L55.84 0.88Q49.84 0.88 46.08-4L46.08-4L46.08-4Q42.32-8.88 42.32-16.72L42.32-16.72L42.32-16.72Q42.32-26.48 48-33.84L48-33.84L48-33.84Q53.68-41.20 61.28-41.20L61.28-41.20L61.28-41.20Q63.60-41.20 65.92-40.52L65.92-40.52L65.92-40.52Q68.24-39.84 70.64-38.40L70.64-38.40L65.04-28.56L65.04-28.56Q62.16-30.80 58.64-30.80" fill="#51cacc" stroke="none" stroke-width="none" transform="translate(-297.4166488647461,23.428493311264933)" style="fill: rgb(157, 248, 113);"></path></g><g class="path" style="transform: matrix(1, 0, 0, 1, 0, 0); transform-origin: -205.137px -7.33151px 0px; animation: 1s linear -0.543529s infinite normal forwards running bounce-29fc35d6-17eb-4d3a-a6b4-f17e5fc834df;"><path d="M99.04-20.24L99.04-20.24Q99.04-25.76 98.08-27.60L98.08-27.60L98.08-27.60Q97.12-29.44 93.60-29.44L93.60-29.44L93.60-29.44Q90.08-29.44 85.60-26.64L85.60-26.64L85.60-20.80L86.48-2L75.68 0L76.64-19.44L75.68-59.92L86.64-61.92L85.60-41.20L85.60-31.84L85.60-31.84Q86.80-33.44 88.32-34.96L88.32-34.96L88.32-34.96Q89.84-36.48 93.04-38.40L93.04-38.40L93.04-38.40Q96.24-40.32 99.88-40.32L99.88-40.32L99.88-40.32Q103.52-40.32 106-37.48L106-37.48L106-37.48Q108.48-34.64 108.48-29.76L108.48-29.76L108-20.80L108.88-1.60L98.08 0.40L99.04-20.24" fill="#51cacc" stroke="none" stroke-width="none" transform="translate(-297.4166488647461,23.428493311264933)" style="fill: rgb(224, 255, 119);"></path></g><g class="path" style="transform: matrix(1, 0, 0, 1, 0, 0); transform-origin: -165.097px 3.26849px 0px; animation: 1s linear -0.504706s infinite normal forwards running bounce-29fc35d6-17eb-4d3a-a6b4-f17e5fc834df;"><path d="M115.28-16.72L115.28-16.72Q115.28-26.96 120.80-34.08L120.80-34.08L120.80-34.08Q126.32-41.20 133.72-41.20L133.72-41.20L133.72-41.20Q141.12-41.20 145.24-36.40L145.24-36.40L145.24-36.40Q149.36-31.60 149.36-23.68L149.36-23.68L149.36-23.68Q149.36-13.12 144.04-6.12L144.04-6.12L144.04-6.12Q138.72 0.88 130.64 0.88L130.64 0.88L130.64 0.88Q124 0.88 119.64-4.12L119.64-4.12L119.64-4.12Q115.28-9.12 115.28-16.72L115.28-16.72zM140.40-19.52L140.40-19.52L140.40-19.52Q140.40-31.12 132.48-31.12L132.48-31.12L132.48-31.12Q124.24-31.12 124.24-20.24L124.24-20.24L124.24-20.24Q124.24-14.56 126.56-11.36L126.56-11.36L126.56-11.36Q128.88-8.16 132.68-8.16L132.68-8.16L132.68-8.16Q136.48-8.16 138.44-11.08L138.44-11.08L138.44-11.08Q140.40-14 140.40-19.52" fill="#51cacc" stroke="none" stroke-width="none" transform="translate(-297.4166488647461,23.428493311264933)" style="fill: rgb(222, 157, 214);"></path></g><g class="path" style="transform: matrix(1, 0, 0, 1, 0, 0); transform-origin: -126.537px 3.26849px 0px; animation: 1s linear -0.465882s infinite normal forwards running bounce-29fc35d6-17eb-4d3a-a6b4-f17e5fc834df;"><path d="M153.84-16.72L153.84-16.72Q153.84-26.96 159.36-34.08L159.36-34.08L159.36-34.08Q164.88-41.20 172.28-41.20L172.28-41.20L172.28-41.20Q179.68-41.20 183.80-36.40L183.80-36.40L183.80-36.40Q187.92-31.60 187.92-23.68L187.92-23.68L187.92-23.68Q187.92-13.12 182.60-6.12L182.60-6.12L182.60-6.12Q177.28 0.88 169.20 0.88L169.20 0.88L169.20 0.88Q162.56 0.88 158.20-4.12L158.20-4.12L158.20-4.12Q153.84-9.12 153.84-16.72L153.84-16.72zM178.96-19.52L178.96-19.52L178.96-19.52Q178.96-31.12 171.04-31.12L171.04-31.12L171.04-31.12Q162.80-31.12 162.80-20.24L162.80-20.24L162.80-20.24Q162.80-14.56 165.12-11.36L165.12-11.36L165.12-11.36Q167.44-8.16 171.24-8.16L171.24-8.16L171.24-8.16Q175.04-8.16 177.00-11.08L177.00-11.08L177.00-11.08Q178.96-14 178.96-19.52" fill="#51cacc" stroke="none" stroke-width="none" transform="translate(-297.4166488647461,23.428493311264933)" style="fill: rgb(255, 112, 142);"></path></g><g class="path" style="transform: matrix(1, 0, 0, 1, 0, 0); transform-origin: -97.1367px -7.53151px 0px; animation: 1s linear -0.427059s infinite normal forwards running bounce-29fc35d6-17eb-4d3a-a6b4-f17e5fc834df;"><path d="M194.80-59.92L205.76-61.92L204.72-20.80L205.60-2L194.80 0L195.76-19.44L194.80-59.92" fill="#51cacc" stroke="none" stroke-width="none" transform="translate(-297.4166488647461,23.428493311264933)" style="fill: rgb(81, 202, 204);"></path></g><g class="path" style="transform: matrix(1, 0, 0, 1, 0, 0); transform-origin: -53.2167px -4.17151px 0px; animation: 1s linear -0.388235s infinite normal forwards running bounce-29fc35d6-17eb-4d3a-a6b4-f17e5fc834df;"><path d="M258.40 0L229.12 0L230.08-19.44L229.12-55.20L259.12-55.20L258.24-46.64L240.24-46.64L239.76-32.48L255.76-32.48L254.88-24L239.44-24L239.36-20.80L239.92-8.48L259.28-8.48L258.40 0" fill="#51cacc" stroke="none" stroke-width="none" transform="translate(-297.4166488647461,23.428493311264933)" style="fill: rgb(157, 248, 113);"></path></g><g class="path" style="transform: matrix(1, 0, 0, 1, 0, 0); transform-origin: -16.7767px 3.18849px 0px; animation: 1s linear -0.349412s infinite normal forwards running bounce-29fc35d6-17eb-4d3a-a6b4-f17e5fc834df;"><path d="M277.36-23.04L280.32-10L281.36-10L284.00-20.96L288.32-40.72L298.24-39.52L292.24-19.68L287.20-0.96L273.52 0.24L268.80-19.20L263.04-38.64L273.92-40.64L277.36-23.04" fill="#51cacc" stroke="none" stroke-width="none" transform="translate(-297.4166488647461,23.428493311264933)" style="fill: rgb(224, 255, 119);"></path></g><g class="path" style="transform: matrix(1, 0, 0, 1, 0, 0); transform-origin: 19.1833px 3.26849px 0px; animation: 1s linear -0.310588s infinite normal forwards running bounce-29fc35d6-17eb-4d3a-a6b4-f17e5fc834df;"><path d="M317.92-8.16L317.92-8.16L317.92-8.16Q320.24-8.16 322.80-9.36L322.80-9.36L322.80-9.36Q325.36-10.56 326.80-11.76L326.80-11.76L328.24-12.96L331.92-8.48L331.92-8.48Q331.12-7.12 329.44-5.36L329.44-5.36L329.44-5.36Q327.76-3.60 326.04-2.36L326.04-2.36L326.04-2.36Q324.32-1.12 321.48-0.12L321.48-0.12L321.48-0.12Q318.64 0.88 315.60 0.88L315.60 0.88L315.60 0.88Q309.12 0.88 305.04-4.04L305.04-4.04L305.04-4.04Q300.96-8.96 300.96-16.72L300.96-16.72L300.96-16.72Q300.96-26.48 306.64-33.84L306.64-33.84L306.64-33.84Q312.32-41.20 319.92-41.20L319.92-41.20L319.92-41.20Q325.76-41.20 329.00-37.92L329.00-37.92L329.00-37.92Q332.24-34.64 332.24-28.72L332.24-28.72L332.24-28.72Q332.24-25.20 331.04-20.72L331.04-20.72L329.44-19.04L309.44-17.20L309.44-17.20Q310.80-8.16 317.92-8.16zM317.92-32.96L317.92-32.96L317.92-32.96Q314.40-32.96 312.00-30.12L312.00-30.12L312.00-30.12Q309.60-27.28 309.20-22.88L309.20-22.88L322.80-24.56L322.80-24.56Q323.04-26.40 323.04-27.60L323.04-27.60L323.04-27.60Q323.04-32.96 317.92-32.96" fill="#51cacc" stroke="none" stroke-width="none" transform="translate(-297.4166488647461,23.428493311264933)" style="fill: rgb(222, 157, 214);"></path></g><g class="path" style="transform: matrix(1, 0, 0, 1, 0, 0); transform-origin: 53.0634px 3.06849px 0px; animation: 1s linear -0.271765s infinite normal forwards running bounce-29fc35d6-17eb-4d3a-a6b4-f17e5fc834df;"><path d="M338.32-38.64L338.32-38.64L348.00-40.72L348.00-40.72Q348.72-34.56 348.96-29.04L348.96-29.04L348.96-29.04Q356.24-40.32 362.64-40.32L362.64-40.32L361.76-27.84L361.76-27.84Q357.12-27.84 354.44-27L354.44-27L354.44-27Q351.76-26.16 348.96-23.68L348.96-23.68L348.96-20.80L349.84-2L339.12 0L340.08-19.44L340.08-19.44Q339.76-30.16 338.32-38.64" fill="#51cacc" stroke="none" stroke-width="none" transform="translate(-297.4166488647461,23.428493311264933)" style="fill: rgb(255, 112, 142);"></path></g><g class="path" style="transform: matrix(1, 0, 0, 1, 0, 0); transform-origin: 84.1034px 11.8685px 0px; animation: 1s linear -0.232941s infinite normal forwards running bounce-29fc35d6-17eb-4d3a-a6b4-f17e5fc834df;"><path d="M379.12 17.60L368.80 15.44L377.04-3.04L371.12-19.20L363.04-38.64L373.68-40.64L378.80-23.60L381.44-15.52L382.48-15.52L384.40-21.36L390.16-40.72L400.00-39.52L385.84-2.32L379.12 17.60" fill="#51cacc" stroke="none" stroke-width="none" transform="translate(-297.4166488647461,23.428493311264933)" style="fill: rgb(81, 202, 204);"></path></g><g class="path" style="transform: matrix(1, 0, 0, 1, 0, 0); transform-origin: 134.583px -4.17151px 0px; animation: 1s linear -0.194118s infinite normal forwards running bounce-29fc35d6-17eb-4d3a-a6b4-f17e5fc834df;"><path d="M426.72-47.12L412.56-46L413.44-55.20L451.44-55.20L450.56-46L436.64-47.20L436.32-20.80L437.28 0L426.08 0L427.04-19.44L426.72-47.12" fill="#51cacc" stroke="none" stroke-width="none" transform="translate(-297.4166488647461,23.428493311264933)" style="fill: rgb(157, 248, 113);"></path></g><g class="path" style="transform: matrix(1, 0, 0, 1, 0, 0); transform-origin: 175.263px -7.33151px 0px; animation: 1s linear -0.155294s infinite normal forwards running bounce-29fc35d6-17eb-4d3a-a6b4-f17e5fc834df;"><path d="M479.44-20.24L479.44-20.24Q479.44-25.76 478.48-27.60L478.48-27.60L478.48-27.60Q477.52-29.44 474.00-29.44L474.00-29.44L474.00-29.44Q470.48-29.44 466.00-26.64L466.00-26.64L466.00-20.80L466.88-2L456.08 0L457.04-19.44L456.08-59.92L467.04-61.92L466.00-41.20L466.00-31.84L466.00-31.84Q467.20-33.44 468.72-34.96L468.72-34.96L468.72-34.96Q470.24-36.48 473.44-38.40L473.44-38.40L473.44-38.40Q476.64-40.32 480.28-40.32L480.28-40.32L480.28-40.32Q483.92-40.32 486.40-37.48L486.40-37.48L486.40-37.48Q488.88-34.64 488.88-29.76L488.88-29.76L488.40-20.80L489.28-1.60L478.48 0.40L479.44-20.24" fill="#51cacc" stroke="none" stroke-width="none" transform="translate(-297.4166488647461,23.428493311264933)" style="fill: rgb(224, 255, 119);"></path></g><g class="path" style="transform: matrix(1, 0, 0, 1, 0, 0); transform-origin: 205.983px 3.06849px 0px; animation: 1s linear -0.116471s infinite normal forwards running bounce-29fc35d6-17eb-4d3a-a6b4-f17e5fc834df;"><path d="M498.08-38.72L508.80-40.72L507.84-20.80L508.72-2L498.00 0L498.96-19.44L498.08-38.72" fill="#51cacc" stroke="none" stroke-width="none" transform="translate(-297.4166488647461,23.428493311264933)" style="fill: rgb(222, 157, 214);"></path></g><g class="path" style="transform: matrix(1, 0, 0, 1, 0, 0); transform-origin: 206.343px -29.3715px 0px; animation: 1s linear -0.0776471s infinite normal forwards running bounce-29fc35d6-17eb-4d3a-a6b4-f17e5fc834df;"><path d="M497.52-52.44L497.52-52.44L497.52-52.44Q497.52-55.12 499.60-57.24L499.60-57.24L499.60-57.24Q501.68-59.36 504.40-59.36L504.40-59.36L504.40-59.36Q507.12-59.36 508.56-57.88L508.56-57.88L508.56-57.88Q510.00-56.40 510.00-53.44L510.00-53.44L510.00-53.44Q510.00-50.48 507.96-48.36L507.96-48.36L507.96-48.36Q505.92-46.24 503.24-46.24L503.24-46.24L503.24-46.24Q500.56-46.24 499.04-48L499.04-48L499.04-48Q497.52-49.76 497.52-52.44" fill="#51cacc" stroke="none" stroke-width="none" transform="translate(-297.4166488647461,23.428493311264933)" style="fill: rgb(255, 112, 142);"></path></g><g class="path" style="transform: matrix(1, 0, 0, 1, 0, 0); transform-origin: 236.263px 3.26849px 0px; animation: 1s linear -0.0388235s infinite normal forwards running bounce-29fc35d6-17eb-4d3a-a6b4-f17e5fc834df;"><path d="M540.80-20.24L540.80-20.24Q540.80-25.76 539.84-27.60L539.84-27.60L539.84-27.60Q538.88-29.44 535.36-29.44L535.36-29.44L535.36-29.44Q531.84-29.44 527.36-26.64L527.36-26.64L527.36-20.80L528.24-2L517.52 0L518.48-19.44L518.48-19.44Q518.16-30.16 516.72-38.64L516.72-38.64L526.40-40.72L526.40-40.72Q526.96-36.08 527.20-31.68L527.20-31.68L527.20-31.68Q528.40-33.28 529.92-34.84L529.92-34.84L529.92-34.84Q531.44-36.40 534.72-38.36L534.72-38.36L534.72-38.36Q538-40.32 541.64-40.32L541.64-40.32L541.64-40.32Q545.28-40.32 547.76-37.48L547.76-37.48L547.76-37.48Q550.24-34.64 550.24-29.76L550.24-29.76L549.76-20.80L550.64-1.60L539.84 0.40L540.80-20.24" fill="#51cacc" stroke="none" stroke-width="none" transform="translate(-297.4166488647461,23.428493311264933)" style="fill: rgb(81, 202, 204);"></path></g><g class="path" style="transform: matrix(1, 0, 0, 1, 0, 0); transform-origin: 278.823px 11.6285px 0px; animation: 1s linear 0s infinite normal forwards running bounce-29fc35d6-17eb-4d3a-a6b4-f17e5fc834df;"><path d="M556.64 7.92L556.64 7.92L556.64 7.92Q556.64 0.88 569.76-3.12L569.76-3.12L569.76-3.12Q566.64-4.72 566.64-7.28L566.64-7.28L566.64-7.28Q566.64-8.32 567.44-9.36L567.44-9.36L567.44-9.36Q568.24-10.40 569.76-11.52L569.76-11.52L569.76-12.16L569.76-12.16Q564.00-12.16 560.60-15.36L560.60-15.36L560.60-15.36Q557.20-18.56 557.20-23.92L557.20-23.92L557.20-23.92Q557.20-30.88 562.88-36.04L562.88-36.04L562.88-36.04Q568.56-41.20 576.32-41.20L576.32-41.20L576.32-41.20Q578.32-41.20 582.16-40.40L582.16-40.40L582.16-40.40Q586.00-39.60 589.68-39.60L589.68-39.60L595.84-39.60L595.04-32.64L589.04-33.36L589.04-33.36Q589.84-31.04 589.84-28.08L589.84-28.08L589.84-28.08Q589.84-25.12 588.44-22.20L588.44-22.20L588.44-22.20Q587.04-19.28 585.08-17.52L585.08-17.52L585.08-17.52Q583.12-15.76 581.16-14.44L581.16-14.44L581.16-14.44Q579.20-13.12 577.80-12.12L577.80-12.12L577.80-12.12Q576.40-11.12 576.40-10.32L576.40-10.32L576.40-10.32Q576.40-8.80 579.60-7.68L579.60-7.68L579.60-7.68Q588.08-4.24 591.08-1.84L591.08-1.84L591.08-1.84Q594.08 0.56 594.08 4.08L594.08 4.08L594.08 4.08Q594.08 10 588.12 13.80L588.12 13.80L588.12 13.80Q582.16 17.60 573.92 17.60L573.92 17.60L573.92 17.60Q565.68 17.60 561.16 14.96L561.16 14.96L561.16 14.96Q556.64 12.32 556.64 7.92zM580.80-25.68L580.80-25.68L580.80-25.68Q580.80-29.60 579.04-31.44L579.04-31.44L579.04-31.44Q577.28-33.28 573.52-33.28L573.52-33.28L573.52-33.28Q566.24-33.28 566.24-26.12L566.24-26.12L566.24-26.12Q566.24-18.96 574.00-18.96L574.00-18.96L574.00-18.96Q580.80-18.96 580.80-25.68zM583.68 5.28L583.68 5.28L583.68 5.28Q583.68 3.84 582.16 2.60L582.16 2.60L582.16 2.60Q580.64 1.36 576.72-0.32L576.72-0.32L576.72-0.32Q570.88 1.28 568.68 2.64L568.68 2.64L568.68 2.64Q566.48 4 566.48 6L566.48 6L566.48 6Q566.48 8 568.68 9.24L568.68 9.24L568.68 9.24Q570.88 10.48 574.80 10.48L574.80 10.48L574.80 10.48Q578.72 10.48 581.20 9.04L581.20 9.04L581.20 9.04Q583.68 7.60 583.68 5.28" fill="#51cacc" stroke="none" stroke-width="none" transform="translate(-297.4166488647461,23.428493311264933)" style="fill: rgb(157, 248, 113);"></path></g></g>
</g>
</g>
</svg>